<svg width="114" height="98" viewBox="0 0 114 98" fill="none" xmlns="http://www.w3.org/2000/svg">
<ellipse cx="56.9922" cy="41.5" rx="6" ry="5.5" fill="#D4D3A6"/>
<ellipse cx="56.9922" cy="5.5" rx="6" ry="5.5" fill="#D4D3A6"/>
<circle cx="56.4922" cy="23.5" r="6" fill="#D4D3A6"/>
<path d="M77.4922 19.5L76.4922 18.5H69.4922V28.5H76.4922L77.4922 27.5V19.5Z" fill="#D4D3A6"/>
<path d="M35.4922 27.5L36.4922 28.5L43.4922 28.5V18.5H36.4922L35.4922 19.5V27.5Z" fill="#D4D3A6"/>
<path d="M69.4922 11.5L68.4922 10.5L44.4922 10.5L43.4922 11.5V35.5L44.4922 36.5H68.4922L69.4922 35.5V11.5Z" stroke="#D4D3A6" stroke-width="2"/>
<ellipse cx="46.1899" cy="58.5036" rx="6" ry="5.5" transform="rotate(-120 46.1899 58.5036)" fill="#D4D3A6"/>
<ellipse cx="15.0131" cy="76.5036" rx="6" ry="5.5" transform="rotate(-120 15.0131 76.5036)" fill="#D4D3A6"/>
<circle cx="30.8514" cy="67.9364" r="6" transform="rotate(-120 30.8514 67.9364)" fill="#D4D3A6"/>
<path d="M16.8875 51.75L16.5215 53.116L20.0215 59.1782L28.6817 54.1782L25.1817 48.116L23.8157 47.75L16.8875 51.75Z" fill="#D4D3A6"/>
<path d="M44.8156 84.123L45.1816 82.757L41.6816 76.6948L33.0214 81.6948L36.5214 87.757L37.8874 88.123L44.8156 84.123Z" fill="#D4D3A6"/>
<path d="M13.9593 62.6782L13.5933 64.0442L25.5933 84.8289L26.9593 85.1949L47.7439 73.1949L48.1099 71.8289L36.1099 51.0442L34.7439 50.6782L13.9593 62.6782Z" stroke="#D4D3A6" stroke-width="2"/>
<ellipse cx="98.6899" cy="76.5036" rx="6" ry="5.5" transform="rotate(-60 98.6899 76.5036)" fill="#D4D3A6"/>
<ellipse cx="67.5131" cy="58.5036" rx="6" ry="5.5" transform="rotate(-60 67.5131 58.5036)" fill="#D4D3A6"/>
<circle cx="82.8514" cy="67.9364" r="6" transform="rotate(-60 82.8514 67.9364)" fill="#D4D3A6"/>
<path d="M89.8875 47.75L88.5215 48.116L85.0215 54.1782L93.6817 59.1782L97.1817 53.116L96.8157 51.75L89.8875 47.75Z" fill="#D4D3A6"/>
<path d="M75.8156 88.123L77.1816 87.757L80.6816 81.6948L72.0214 76.6948L68.5214 82.757L68.8874 84.123L75.8156 88.123Z" fill="#D4D3A6"/>
<path d="M78.9593 50.6782L77.5933 51.0442L65.5933 71.8289L65.9593 73.1949L86.7439 85.1949L88.1099 84.8289L100.11 64.0442L99.7439 62.6782L78.9593 50.6782Z" stroke="#D4D3A6" stroke-width="2"/>
</svg>
