<svg width="151" height="126" viewBox="0 0 151 126" fill="none" xmlns="http://www.w3.org/2000/svg">
<path d="M81.0005 45.5C81.0005 48.5376 78.3142 51 75.0005 51C71.6868 51 69.0005 48.5376 69.0005 45.5C69.0005 42.4624 71.6868 40 75.0005 40C78.3142 40 81.0005 42.4624 81.0005 45.5Z" fill="#D4D3A6"/>
<path d="M93.0005 50H57.0005V51L68.5005 59L58.0005 73.5L58.5005 74.5L75.0005 66.5L91.5005 74.5L92.0005 73.5L81.0005 59L93.0005 51V50Z" fill="#D4D3A6"/>
<ellipse cx="18.3849" cy="19.0921" rx="6" ry="5.5" transform="rotate(135 18.3849 19.0921)" fill="#D4D3A6"/>
<ellipse cx="43.8404" cy="44.5479" rx="6" ry="5.5" transform="rotate(135 43.8404 44.5479)" fill="#D4D3A6"/>
<circle cx="31.4659" cy="31.4663" r="6" transform="rotate(135 31.4659 31.4663)" fill="#D4D3A6"/>
<path d="M19.4452 49.144H20.8595L25.8092 44.1942L18.7381 37.1232L13.7884 42.0729V43.4871L19.4452 49.144Z" fill="#D4D3A6"/>
<path d="M43.4869 13.7886H42.0727L37.1229 18.7384L44.194 25.8095L49.1437 20.8597V19.4455L43.4869 13.7886Z" fill="#D4D3A6"/>
<path d="M30.7592 49.144H32.1734L49.144 32.1734V30.7592L32.1734 13.7886H30.7592L13.7886 30.7592V32.1734L30.7592 49.144Z" stroke="#D4D3A6" stroke-width="2"/>
<ellipse cx="6" cy="5.5" rx="6" ry="5.5" transform="matrix(-0.707107 -0.707107 -0.707107 0.707107 114.017 44.1941)" fill="#D4D3A6"/>
<ellipse cx="6" cy="5.5" rx="6" ry="5.5" transform="matrix(-0.707107 -0.707107 -0.707107 0.707107 139.472 18.7383)" fill="#D4D3A6"/>
<circle cx="6" cy="6" r="6" transform="matrix(-0.707107 -0.707107 -0.707107 0.707107 127.451 31.4663)" fill="#D4D3A6"/>
<path d="M106.945 13.7886H108.359L113.309 18.7384L106.238 25.8095L101.288 20.8597V19.4455L106.945 13.7886Z" fill="#D4D3A6"/>
<path d="M130.987 49.144H129.573L124.623 44.1942L131.694 37.1232L136.644 42.0729V43.4871L130.987 49.144Z" fill="#D4D3A6"/>
<path d="M118.259 13.7886H119.673L136.644 30.7592V32.1734L119.673 49.144H118.259L101.289 32.1734V30.7592L118.259 13.7886Z" stroke="#D4D3A6" stroke-width="2"/>
<ellipse cx="74.7339" cy="84.5" rx="6" ry="5.5" transform="rotate(-180 74.7339 84.5)" fill="#D4D3A6"/>
<ellipse cx="74.7339" cy="120.5" rx="6" ry="5.5" transform="rotate(-180 74.7339 120.5)" fill="#D4D3A6"/>
<circle cx="75.2339" cy="102.5" r="6" transform="rotate(-180 75.2339 102.5)" fill="#D4D3A6"/>
<path d="M54.2339 106.5L55.2339 107.5H62.2339V97.5H55.2339L54.2339 98.5V106.5Z" fill="#D4D3A6"/>
<path d="M96.2339 98.5L95.2339 97.5H88.2339V107.5H95.2339L96.2339 106.5V98.5Z" fill="#D4D3A6"/>
<path d="M62.2339 114.5L63.2339 115.5H87.2339L88.2339 114.5V90.5L87.2339 89.5H63.2339L62.2339 90.5V114.5Z" stroke="#D4D3A6" stroke-width="2"/>
</svg>
