<?xml version="1.0" standalone="no"?>
<!DOCTYPE svg PUBLIC "-//W3C//DTD SVG 20010904//EN"
 "http://www.w3.org/TR/2001/REC-SVG-20010904/DTD/svg10.dtd">
<svg version="1.0" xmlns="http://www.w3.org/2000/svg"
 width="912.000000pt" height="912.000000pt" viewBox="0 0 912.000000 912.000000"
 preserveAspectRatio="xMidYMid meet">
<metadata>
Created by potrace 1.14, written by Peter Selinger 2001-2017
</metadata>
<g transform="translate(0.000000,912.000000) scale(0.100000,-0.100000)"
fill="#000000" stroke="none">
<path d="M4425 9112 c-65 -13 -195 -69 -195 -84 0 -4 -4 -8 -9 -8 -22 0 -105
-96 -138 -158 -28 -53 -42 -124 -39 -199 5 -106 37 -187 105 -259 34 -36 32
-41 -18 -42 -18 0 -35 -3 -38 -5 -2 -3 -19 -1 -38 3 -20 5 -33 4 -29 -1 3 -5
-6 -5 -20 1 -14 5 -26 6 -26 1 0 -5 -16 -5 -34 -1 -19 4 -37 5 -40 3 -4 -4
-40 -5 -126 -2 -8 0 -28 0 -45 -1 -16 0 -51 1 -77 2 -27 1 -51 -1 -54 -5 -3
-3 -12 -3 -20 0 -9 3 -40 -20 -79 -59 l-66 -64 1 -105 c0 -57 0 -122 0 -144 0
-22 0 -78 1 -125 0 -47 0 -98 -1 -115 -1 -16 -2 -46 -3 -65 l-2 -35 -237 -2
-238 -3 -40 -40 c-34 -34 -40 -46 -38 -80 1 -22 -1 -43 -5 -46 -3 -3 -2 -16 3
-28 4 -13 5 -29 0 -36 -4 -7 -4 -25 0 -40 4 -15 4 -33 0 -40 -4 -7 -4 -25 0
-41 5 -15 6 -30 3 -33 -8 -8 -9 -146 -2 -146 4 0 4 -15 0 -32 -4 -18 -4 -48 0
-65 3 -18 3 -33 -2 -33 -4 0 -4 -13 1 -29 4 -16 7 -31 6 -33 -2 -2 14 -20 35
-40 22 -20 39 -35 39 -32 0 2 8 0 18 -5 11 -6 33 -6 55 -2 20 5 39 6 42 3 7
-7 116 -5 123 2 2 3 12 1 21 -4 10 -5 33 -5 54 0 21 4 39 5 41 1 5 -8 53 -7
61 1 3 2 18 3 33 0 l29 -4 2 -91 c1 -51 2 -105 1 -122 0 -16 0 -43 1 -60 1
-16 1 -37 0 -45 -1 -17 -1 -131 -1 -204 1 -26 -1 -51 -4 -53 -6 -7 102 -121
127 -134 10 -6 146 -10 322 -10 l305 0 -35 -35 c-19 -19 -35 -39 -35 -44 0 -6
-3 -10 -8 -10 -7 0 -52 -97 -60 -129 -9 -39 -10 -164 -1 -193 6 -18 12 -41 14
-51 2 -9 13 -30 24 -46 11 -15 18 -30 16 -33 -3 -2 22 -32 55 -66 90 -91 205
-144 317 -146 24 -1 43 -5 43 -9 0 -5 5 -5 12 -1 6 4 33 9 60 11 170 11 352
163 395 328 21 81 6 219 -30 287 -23 43 -70 108 -77 108 -4 0 -10 7 -13 14 -5
13 42 15 339 15 l346 1 64 62 c62 61 65 65 61 106 -2 23 -1 42 2 42 5 0 5 47
1 170 0 14 -1 52 -1 85 0 33 -1 79 -2 103 -1 23 0 42 3 42 3 0 3 28 2 61 -3
49 -1 60 10 53 13 -8 93 -8 133 -1 11 3 27 1 36 -4 8 -4 32 -4 52 0 20 5 39 6
42 3 7 -7 116 -5 123 2 2 3 13 1 23 -4 11 -7 27 -6 44 0 39 15 95 78 96 109 3
82 0 171 -6 181 -3 5 -2 10 4 10 6 0 6 11 1 30 -5 17 -5 32 0 35 5 3 6 15 0
29 -4 12 -4 29 0 36 5 8 6 18 3 24 -3 5 -5 32 -4 60 2 45 2 64 -1 101 0 6 1
15 2 20 11 44 -2 87 -39 125 l-38 41 -241 0 -241 0 -1 72 c-1 40 -1 79 -1 87
0 8 0 42 0 75 0 33 0 66 0 73 0 11 0 237 0 273 0 20 -119 137 -139 137 -8 0
-35 1 -60 1 -25 0 -53 1 -62 1 -10 0 -26 0 -35 0 -10 0 -49 0 -87 0 -39 0 -72
3 -74 5 -3 3 -11 0 -18 -6 -8 -7 -14 -7 -19 1 -4 6 -12 7 -24 1 -9 -5 -23 -6
-30 -1 -8 4 -25 5 -40 1 -14 -3 -39 -5 -56 -4 -16 2 -48 3 -70 2 -22 0 -47 0
-55 0 -8 1 -23 1 -32 2 -24 0 -23 7 5 33 44 43 88 119 104 181 12 48 11 169
-3 215 -59 199 -247 329 -472 327 -37 0 -76 -2 -87 -5z m-642 -916 c5 5 96 6
145 1 17 -2 32 1 32 6 0 4 4 5 10 2 5 -3 51 -5 102 -5 99 1 136 0 181 -4 15
-1 27 2 27 7 0 4 4 6 10 2 8 -5 248 -9 275 -4 6 1 14 1 19 0 25 -5 137 -3 142
2 3 3 12 3 18 1 20 -8 96 -10 96 -3 0 3 18 3 39 -1 22 -4 47 -3 56 3 13 7 16
6 10 -3 -6 -9 -3 -9 12 -1 11 6 22 8 25 6 7 -7 98 -12 98 -4 0 3 18 3 39 -1
22 -4 47 -3 56 3 13 7 16 6 10 -3 -6 -9 -3 -9 12 -1 11 6 22 8 25 6 8 -9 98
-11 98 -3 0 5 5 6 11 2 6 -3 44 -6 83 -5 105 2 111 -8 106 -184 -1 -27 -1 -77
-1 -110 0 -33 0 -69 0 -80 0 -218 0 -288 1 -325 2 -55 2 -62 0 -125 -1 -27 -1
-77 -1 -110 0 -33 0 -69 0 -80 0 -218 0 -288 1 -325 1 -25 1 -54 1 -65 0 -11
0 -56 0 -100 0 -44 0 -87 0 -95 -1 -42 0 -130 2 -168 1 -23 0 -42 -3 -42 -3 0
-4 -17 -2 -37 4 -55 -8 -67 -74 -70 -31 -1 -58 -4 -61 -6 -2 -3 -20 -1 -39 3
-19 4 -36 5 -39 0 -2 -4 -25 -4 -49 0 -25 4 -50 4 -56 0 -6 -4 -24 -5 -38 -3
-15 3 -36 4 -47 4 -11 0 -45 0 -75 0 -30 0 -61 0 -67 0 -31 -2 -70 -1 -93 2
-14 2 -33 -1 -42 -5 -12 -6 -18 -5 -18 2 0 7 -6 8 -18 1 -10 -5 -24 -6 -31 -1
-8 4 -25 4 -40 0 -14 -4 -35 -4 -46 0 -11 4 -29 4 -41 0 -11 -5 -26 -5 -34 0
-7 4 -24 5 -38 1 -14 -4 -47 -4 -72 -1 -26 3 -56 3 -66 0 -10 -4 -33 -4 -51 1
-18 4 -35 4 -38 -1 -2 -4 -25 -4 -49 0 -25 4 -50 4 -56 0 -6 -4 -24 -5 -38 -3
-15 3 -36 4 -47 4 -11 0 -45 0 -75 0 -30 0 -61 0 -67 0 -31 -2 -70 -1 -93 2
-14 2 -33 -1 -42 -5 -12 -6 -18 -5 -18 2 0 7 -6 8 -18 1 -10 -6 -24 -6 -32 -1
-8 5 -18 6 -22 4 -8 -5 -97 -6 -140 -2 -23 2 -49 31 -49 54 2 84 2 201 1 209
-1 6 -1 15 0 20 1 6 1 39 0 75 -1 36 -1 81 -1 100 1 19 1 73 0 120 0 47 0 99
0 115 3 137 1 206 -3 214 -4 5 -2 12 4 16 6 4 8 11 4 16 -4 8 -5 55 -2 204 0
6 -1 21 -2 35 -1 22 -1 126 0 235 0 22 0 78 -1 125 0 47 0 99 0 115 3 123 1
206 -3 214 -3 4 4 18 15 30 16 17 29 21 65 18 24 -2 44 0 44 4 0 4 13 4 29 -1
16 -4 31 -6 34 -4z"/>
<path d="M4420 7697 c-217 -73 -344 -250 -335 -467 5 -130 36 -211 118 -310
46 -56 173 -133 234 -143 10 -1 23 -5 28 -8 6 -3 30 -6 55 -7 25 0 50 -1 55
-2 6 -1 12 -1 15 0 3 1 21 3 41 5 48 6 145 42 189 71 143 97 223 253 215 418
-3 44 -5 89 -5 98 -1 10 -5 20 -11 23 -5 4 -9 15 -9 25 0 20 -57 120 -87 155
-38 43 -120 102 -172 124 -72 31 -83 33 -181 36 -68 3 -99 -1 -150 -18z"/>
<path d="M2267 5980 c-9 -11 -29 -39 -44 -62 -15 -24 -36 -52 -45 -62 -10 -11
-18 -23 -18 -28 0 -4 -7 -16 -16 -25 -27 -31 -124 -173 -124 -182 0 -5 -4 -11
-8 -13 -5 -1 -37 -45 -73 -97 -35 -51 -77 -112 -94 -136 -16 -24 -48 -69 -70
-102 -22 -32 -43 -59 -47 -61 -5 -2 -8 -8 -8 -13 0 -6 -5 -15 -10 -22 -6 -7
-24 -31 -41 -54 l-30 -43 -32 23 c-17 12 -37 27 -43 32 -6 6 -22 17 -34 25
-24 16 -88 64 -107 80 -7 5 -16 10 -22 10 -5 0 -11 3 -13 8 -1 4 -27 25 -57
46 -30 21 -59 43 -65 48 -6 5 -72 52 -146 105 -74 53 -136 101 -138 105 -2 4
-10 8 -17 8 -7 0 -15 4 -17 8 -2 4 -32 28 -68 52 -35 25 -71 51 -80 57 -8 7
-64 49 -125 92 -60 44 -129 94 -152 111 l-41 31 -42 -21 c-22 -11 -39 -24 -36
-28 8 -14 180 -367 180 -372 1 -3 29 -62 64 -132 157 -323 182 -375 182 -385
0 -6 5 -13 11 -15 5 -2 11 -10 13 -18 4 -21 39 -94 49 -101 5 -3 8 -8 6 -10
-1 -2 28 -66 64 -141 l67 -138 -72 -147 c-40 -82 -71 -151 -70 -155 1 -5 -2
-8 -8 -8 -5 0 -10 -5 -10 -11 0 -6 -25 -60 -55 -120 -30 -60 -55 -113 -56
-117 -1 -4 -24 -52 -52 -107 -27 -55 -50 -102 -49 -105 0 -3 -15 -34 -34 -69
-19 -35 -34 -70 -34 -77 0 -7 -3 -14 -7 -16 -5 -1 -28 -46 -53 -98 -24 -52
-51 -103 -59 -112 -8 -10 -11 -18 -7 -18 3 0 -12 -36 -34 -80 l-40 -80 40 -20
41 -21 92 70 c51 39 97 74 102 78 6 5 114 87 240 183 233 176 313 237 577 438
80 62 149 112 152 112 3 0 6 -4 6 -9 0 -6 32 -55 70 -111 39 -56 70 -105 70
-111 0 -5 4 -9 9 -9 5 0 14 -13 21 -30 7 -16 16 -30 21 -30 5 0 9 -6 9 -13 0
-8 9 -22 20 -32 11 -10 20 -22 20 -26 0 -5 18 -34 40 -66 22 -32 45 -65 50
-73 5 -8 25 -37 45 -65 19 -27 39 -59 44 -71 5 -11 15 -27 23 -35 7 -8 51 -71
96 -141 85 -128 95 -138 137 -138 21 0 50 22 40 31 -5 6 -8 185 -6 399 0 8 0
80 0 160 0 80 0 154 1 165 2 30 2 159 0 200 -1 11 -1 27 -1 35 0 8 1 51 0 95
0 79 1 80 18 55 48 -69 150 -142 228 -163 62 -17 107 -21 160 -14 67 10 81 14
139 43 135 66 247 236 250 379 0 30 5 55 9 55 5 0 5 5 1 11 -4 6 -9 33 -11 59
-14 167 -150 340 -305 389 -43 13 -108 24 -133 22 -11 -1 -27 -2 -35 -3 -52
-1 -144 -36 -200 -77 -42 -30 -109 -100 -112 -115 -1 -6 -4 18 -7 54 -3 36 -3
79 0 95 3 17 3 39 -1 50 -4 11 -4 30 1 42 5 12 4 25 0 28 -5 3 -6 20 -2 38 5
18 5 41 1 52 -4 11 -4 29 0 40 7 20 5 68 -4 91 -2 6 -2 14 1 17 3 3 4 63 3
134 -1 70 -1 135 -1 143 2 86 2 177 1 185 -1 6 -2 13 -1 18 1 4 2 42 3 85 l0
77 -39 2 c-28 2 -44 -3 -56 -17z"/>
<path d="M6721 5936 c1 -35 -2 -69 -5 -75 -4 -5 -2 -12 3 -15 5 -3 5 -21 1
-41 -4 -19 -4 -37 0 -40 4 -3 4 -21 0 -40 -4 -19 -4 -37 1 -40 4 -3 6 -11 4
-18 -9 -23 -11 -82 -4 -114 4 -18 3 -33 -1 -33 -4 0 -4 -18 0 -40 4 -22 5 -40
1 -40 -5 0 -6 -96 0 -110 1 -3 1 -9 0 -14 -1 -4 -2 -27 -1 -50 0 -22 1 -48 1
-56 0 -8 -2 -39 -3 -68 -2 -28 0 -52 3 -52 4 0 3 -17 -1 -38 -3 -20 -3 -48 0
-62 4 -14 5 -34 3 -45 -2 -11 -4 -37 -4 -58 l0 -38 -55 54 c-54 55 -111 93
-175 117 -52 18 -182 21 -238 4 -156 -46 -277 -179 -316 -349 -9 -37 -14 -70
-11 -72 3 -3 1 -16 -4 -29 -5 -13 -6 -24 -2 -24 4 0 7 -12 6 -27 -4 -93 59
-235 140 -315 89 -89 192 -129 315 -123 81 4 95 7 164 40 53 25 158 114 170
145 4 12 12 -48 8 -72 -2 -14 -2 -66 -1 -155 1 -51 -1 -96 -4 -102 -4 -5 -2
-12 3 -15 5 -3 5 -21 1 -41 -4 -19 -4 -37 0 -40 4 -3 4 -21 0 -40 -4 -19 -4
-37 0 -40 4 -3 5 -20 1 -37 -7 -33 -5 -92 4 -115 2 -7 1 -13 -4 -13 -5 0 -5
-18 -1 -40 4 -22 5 -40 1 -40 -7 0 -6 -99 2 -106 3 -3 2 -17 -2 -32 -4 -15 -4
-44 -1 -64 4 -21 5 -38 1 -38 -7 0 -6 -99 2 -106 3 -3 3 -12 0 -20 -8 -21 5
-47 19 -38 7 5 24 8 37 8 19 1 36 17 73 71 26 39 54 77 62 86 7 9 15 20 17 26
2 5 32 49 67 99 125 177 299 427 374 537 7 11 26 36 41 58 l29 39 36 -28 c21
-15 47 -34 58 -42 91 -62 150 -104 154 -110 3 -3 21 -17 40 -30 19 -14 40 -28
45 -33 6 -4 82 -60 170 -123 213 -154 204 -147 227 -166 12 -10 25 -18 29 -18
4 0 14 -6 21 -13 7 -7 47 -38 88 -67 41 -30 77 -57 80 -60 3 -3 13 -9 22 -15
9 -5 55 -38 102 -73 l85 -63 41 21 c33 17 39 24 31 38 -16 32 -135 277 -136
282 -1 3 -39 82 -84 175 -46 94 -117 240 -158 325 -41 85 -115 237 -164 338
l-89 182 86 178 c48 97 113 231 144 297 32 66 108 224 170 350 62 127 137 282
167 345 31 63 59 123 64 132 8 14 2 21 -31 38 l-41 21 -52 -40 c-69 -54 -59
-46 -172 -131 -55 -41 -102 -77 -105 -80 -3 -3 -50 -39 -105 -80 -55 -41 -104
-78 -110 -83 -5 -4 -28 -21 -50 -38 -22 -16 -47 -35 -55 -42 -8 -7 -51 -39
-95 -72 -44 -33 -85 -64 -91 -70 -7 -5 -24 -19 -40 -30 -15 -11 -40 -30 -55
-42 -15 -13 -32 -23 -38 -23 -6 0 -11 -4 -11 -8 0 -5 -30 -30 -67 -57 -38 -27
-70 -52 -73 -56 -3 -3 -15 -11 -26 -17 -18 -10 -23 -8 -28 6 -6 16 -42 71 -66
99 -5 7 -10 16 -10 21 0 5 -9 17 -20 27 -11 10 -20 24 -20 30 0 7 -7 19 -16
26 -9 7 -20 22 -25 34 -8 17 -41 67 -66 100 -5 6 -14 22 -22 38 -8 15 -18 27
-21 27 -4 0 -13 14 -20 30 -7 17 -16 30 -20 30 -4 0 -10 8 -14 18 -5 16 -42
71 -66 99 -5 7 -10 14 -10 17 0 3 -15 26 -32 51 -18 26 -38 55 -44 66 -6 10
-18 27 -26 36 -9 10 -23 32 -32 50 -8 17 -21 37 -28 45 -7 7 -25 31 -39 53
-23 36 -32 41 -68 43 l-41 3 1 -65z"/>
<path d="M4499 3766 c-2 -2 -22 -7 -44 -10 -115 -18 -207 -62 -282 -135 -29
-28 -53 -55 -53 -61 0 -5 -3 -10 -7 -10 -7 0 -20 -25 -53 -105 -16 -39 -21
-173 -9 -222 17 -63 58 -138 94 -174 19 -19 35 -37 35 -41 0 -4 -102 -7 -227
-7 -126 0 -263 0 -306 -1 l-78 0 -69 -67 c-38 -36 -67 -70 -64 -75 3 -5 5 -39
4 -76 -1 -37 -1 -74 -1 -82 0 -8 0 -55 0 -105 -1 -49 0 -101 1 -115 2 -29 2
-22 0 -123 -1 -43 -6 -75 -11 -71 -5 3 -9 0 -9 -6 0 -6 -5 -8 -10 -5 -6 3 -27
6 -48 5 -45 -1 -100 -1 -169 1 -28 1 -56 -2 -62 -6 -6 -3 -11 -2 -11 4 0 6 -6
8 -13 5 -23 -8 -116 -11 -129 -3 -7 4 -29 -11 -55 -37 -44 -46 -44 -47 -43
-147 0 -26 -1 -51 -4 -55 -3 -5 -1 -14 4 -22 5 -8 5 -21 0 -30 -5 -9 -5 -22 0
-30 5 -8 5 -21 0 -30 -5 -9 -5 -22 0 -30 4 -7 4 -24 0 -36 -6 -14 -5 -26 0
-29 5 -3 5 -18 0 -35 -5 -17 -5 -30 0 -30 5 0 5 -13 0 -30 -5 -17 -5 -30 0
-30 5 0 5 -13 0 -30 -5 -16 -6 -30 -2 -30 4 0 6 -20 5 -45 -2 -39 3 -50 36
-86 l38 -40 241 0 241 0 1 -87 c0 -48 0 -105 0 -127 0 -22 0 -78 1 -125 0 -47
0 -98 -1 -115 -7 -128 -6 -131 62 -201 34 -35 63 -62 65 -60 2 2 19 0 38 -4
23 -5 36 -4 39 4 3 7 5 7 5 -2 1 -9 6 -10 20 -3 10 6 21 8 24 5 7 -8 97 -11
97 -4 0 7 66 4 77 -3 5 -3 26 -2 46 2 20 5 39 6 42 3 7 -7 116 -5 123 2 2 3
12 1 22 -4 11 -6 30 -6 49 0 40 11 39 1 -4 -46 -28 -32 -77 -112 -80 -134 -1
-3 -6 -22 -12 -42 -13 -45 -14 -149 -1 -197 19 -69 60 -140 114 -194 53 -53
156 -117 188 -117 9 0 16 -3 16 -7 0 -10 35 -14 140 -16 103 -2 170 7 181 25
5 7 9 9 9 5 0 -5 27 6 61 24 77 41 161 127 195 198 34 73 36 82 39 176 4 121
-34 215 -120 297 -16 16 -17 20 -5 28 8 5 21 5 31 -1 11 -5 27 -5 42 0 13 5
29 6 36 1 12 -7 81 -3 90 5 1 2 14 0 27 -5 16 -6 24 -6 24 1 0 6 6 6 18 1 9
-5 26 -8 37 -6 38 7 82 7 93 0 7 -4 12 -2 12 4 0 7 6 8 18 2 9 -5 26 -8 37 -6
38 7 82 7 93 0 7 -4 12 -2 12 4 0 7 6 8 18 2 9 -5 35 -7 57 -5 32 4 50 16 102
68 64 63 69 75 65 150 -1 21 -2 59 -2 250 -1 159 -1 176 2 215 l3 35 165 2
c91 1 198 2 238 3 72 0 74 1 112 40 32 33 39 47 42 90 1 28 0 60 -4 70 -4 11
-3 22 2 25 6 3 6 15 0 30 -6 15 -6 27 0 30 5 3 6 15 0 29 -4 12 -4 29 0 36 5
8 6 18 3 24 -3 5 -5 32 -4 60 1 28 1 60 1 71 -1 25 -1 26 2 103 2 34 0 62 -3
62 -3 0 -4 10 -2 23 6 34 -69 110 -109 109 -16 0 -32 -3 -35 -5 -2 -3 -18 -1
-34 3 -16 5 -29 5 -29 1 0 -4 -15 -6 -32 -4 -18 2 -46 3 -63 3 -16 -1 -36 -1
-42 -1 -31 2 -42 2 -115 0 -42 -1 -81 1 -86 5 -11 6 -22 66 -13 66 3 0 5 26 4
57 -3 60 -3 77 -3 258 0 61 -1 121 -3 135 -2 14 1 33 6 43 7 14 -5 32 -61 88
l-68 70 -351 0 -352 0 40 42 c37 39 84 122 96 171 3 11 7 57 8 101 4 128 -34
216 -135 313 -33 32 -129 93 -147 94 -4 0 -23 6 -42 14 -18 8 -60 16 -93 19
-33 3 -63 7 -67 10 -5 2 -10 3 -12 1z m-757 -930 c6 5 60 6 98 1 14 -2 34 0
45 3 10 4 34 4 52 0 18 -5 35 -4 38 1 3 4 16 5 28 0 12 -5 31 -5 42 -1 11 4
34 4 52 -1 18 -4 35 -3 38 2 3 4 16 5 28 0 12 -5 31 -5 42 -1 11 4 34 4 52 -1
18 -4 35 -3 38 2 3 4 16 5 28 0 12 -5 31 -5 42 -1 11 4 34 4 52 -1 18 -4 35
-3 38 2 3 4 16 5 28 0 12 -5 31 -5 42 -1 11 4 34 4 52 -1 18 -4 35 -3 38 2 3
4 16 5 28 0 12 -5 31 -5 42 -1 11 4 34 4 52 -1 18 -4 35 -3 38 2 3 4 16 5 28
0 12 -5 31 -5 42 -1 11 4 34 4 52 -1 18 -4 35 -3 38 2 3 4 16 5 28 0 12 -5 31
-5 42 -1 11 4 34 4 52 -1 18 -4 35 -3 38 2 3 4 16 5 28 0 12 -5 31 -5 42 -1
11 4 34 4 52 -1 18 -4 35 -3 38 2 3 4 16 5 28 0 12 -5 31 -5 42 -1 11 4 34 4
52 -1 18 -4 36 -3 39 2 3 5 10 7 15 3 6 -3 24 -7 40 -8 17 -1 34 -8 39 -15 6
-11 12 -107 11 -186 0 -11 0 -56 0 -100 0 -44 0 -86 0 -92 -2 -83 -2 -180 -1
-188 1 -5 1 -14 0 -20 -1 -5 -1 -39 0 -75 1 -36 1 -81 1 -100 -1 -19 -1 -73 0
-120 1 -103 1 -107 0 -145 -1 -35 -1 -39 0 -165 0 -52 0 -104 0 -115 0 -11 -1
-63 -1 -115 -1 -52 -1 -100 0 -105 1 -6 1 -14 0 -20 -4 -23 -1 -136 5 -144 3
-5 1 -12 -5 -16 -6 -4 -8 -10 -5 -15 3 -5 6 -39 6 -75 1 -86 -15 -107 -78
-102 -24 2 -43 0 -43 -5 0 -4 -6 -5 -12 -3 -22 8 -148 10 -148 3 0 -4 -6 -5
-14 -2 -22 8 -146 10 -146 2 0 -4 -6 -5 -12 -3 -22 8 -148 10 -148 3 0 -4 -6
-5 -14 -2 -22 8 -146 10 -146 2 0 -4 -6 -5 -12 -3 -21 8 -148 11 -148 3 0 -4
-13 -3 -29 2 -16 4 -31 6 -34 4 -5 -5 -96 -6 -144 -1 -18 2 -33 -1 -33 -6 0
-4 -4 -6 -10 -2 -11 7 -269 9 -276 2 -3 -3 -18 -2 -33 3 -16 4 -34 4 -41 0 -7
-5 -18 -6 -24 -4 -24 9 -96 10 -96 2 0 -5 -5 -6 -10 -3 -6 4 -62 6 -124 6
-142 -1 -149 5 -147 124 0 11 0 38 0 60 0 22 0 47 1 55 0 8 0 53 -1 100 0 47
0 97 0 113 2 65 2 107 2 192 0 50 0 95 1 100 0 6 -1 21 -2 35 -1 22 -1 126 0
235 0 22 0 78 -1 125 0 47 0 99 0 115 3 126 1 207 -4 214 -3 5 -1 12 5 16 6 4
8 11 4 16 -4 8 -5 55 -2 204 0 6 -1 21 -2 35 -1 14 -1 55 0 92 1 72 5 77 65
85 17 3 32 6 34 8 2 3 11 0 21 -5 10 -5 20 -7 22 -4z"/>
<path d="M4475 2353 c-115 -22 -228 -92 -296 -183 -153 -204 -119 -506 73
-655 21 -17 44 -35 51 -41 36 -32 187 -75 262 -75 14 -1 85 9 115 16 44 8 164
73 200 107 65 62 115 141 140 223 18 58 21 195 6 252 -23 85 -81 182 -146 241
-37 33 -138 92 -159 92 -10 0 -21 3 -25 7 -3 4 -14 9 -24 11 -24 6 -173 10
-197 5z"/>
</g>
</svg>
