<svg width="190" height="190" viewBox="0 0 190 190" fill="none" xmlns="http://www.w3.org/2000/svg">
<g clip-path="url(#clip0_395_201)">
<circle cx="95" cy="95" r="94.5" stroke="#9AFE27"/>
<path d="M27.3587 90.384C22.6067 90.384 20.1107 87.888 19.8467 85.08H23.3267C23.5907 86.616 24.9587 87.984 27.3587 87.984C29.7587 87.984 30.8147 86.928 30.8147 85.8C30.8147 84.672 30.2627 84.048 28.1507 83.328L24.8387 82.2C21.4307 81.048 20.0627 79.704 20.0627 77.4C20.0627 75 22.2467 72.816 26.6867 72.816C31.2467 72.816 33.2387 74.856 33.8147 77.52H30.4547C30.0947 76.32 29.0627 75.216 26.6867 75.216C24.3107 75.216 23.3027 76.224 23.3027 77.232C23.3027 78.168 23.8787 78.768 25.8467 79.44L29.1587 80.568C32.8547 81.816 34.0547 83.232 34.0547 85.68C34.0547 88.128 31.7987 90.384 27.3587 90.384ZM47.8032 84.576V84.72H38.8752C39.0192 87.072 40.2912 88.224 41.9472 88.224C43.5072 88.224 44.2752 87.456 44.4912 86.52H47.4912C47.0592 88.608 45.2832 90.384 41.9472 90.384C38.3472 90.384 35.9712 88.008 35.9712 84C35.9712 79.968 38.3232 77.616 41.9472 77.616C45.5712 77.616 47.8032 79.848 47.8032 84.576ZM41.9472 79.728C40.2672 79.728 39.0192 80.88 38.8752 82.68H44.8752C44.7312 80.76 43.6272 79.728 41.9472 79.728ZM56.8832 77.616C59.7632 77.616 61.3712 79.224 61.3712 82.056V90H58.6112V82.776C58.6112 80.736 57.6512 79.776 55.9472 79.776C54.2432 79.776 53.2112 80.808 53.2112 82.776V90H50.4512V78H53.2112V79.176C53.8352 78.312 55.1312 77.616 56.8832 77.616ZM69.7167 90.384C65.7327 90.384 64.0287 88.656 63.7647 86.52H66.8847C67.1247 87.48 67.8687 88.224 69.7167 88.224C71.4927 88.224 72.1407 87.576 72.1407 86.928C72.1407 86.28 71.7807 85.944 70.2447 85.512L67.6767 84.792C64.9887 84.048 64.0287 83.04 64.0287 81.216C64.0287 79.296 65.7087 77.616 69.2367 77.616C72.7647 77.616 74.4447 79.296 74.8047 81.36H71.9247C71.7807 80.592 70.9647 79.776 69.2367 79.776C67.5087 79.776 66.9087 80.376 66.9087 80.976C66.9087 81.6 67.3167 82.008 68.7087 82.392L71.5887 83.208C73.9407 83.88 75.0207 84.96 75.0207 86.688C75.0207 88.656 73.2927 90.384 69.7167 90.384ZM82.8718 90.384C79.1038 90.384 76.7518 87.912 76.7518 84C76.7518 80.088 79.1038 77.616 82.8718 77.616C86.6398 77.616 88.9918 80.088 88.9918 84C88.9918 87.912 86.6398 90.384 82.8718 90.384ZM82.8718 88.224C84.8158 88.224 86.1118 86.808 86.1118 84C86.1118 81.192 84.8158 79.776 82.8718 79.776C80.9278 79.776 79.6318 81.192 79.6318 84C79.6318 86.808 80.9278 88.224 82.8718 88.224ZM98.4703 77.88H98.7103V80.64H98.5903C95.6143 80.64 94.4143 81.84 94.4143 84.48V90H91.6543V78H94.4143V79.944C95.0143 78.744 96.4303 77.88 98.4703 77.88ZM103.836 75.84H101.076V73.2H103.836V75.84ZM103.836 90H101.076V78H103.836V90ZM120.078 77.616C122.766 77.616 124.398 79.248 124.398 81.96V90H121.638V82.56C121.638 80.616 120.798 79.776 119.454 79.776C118.11 79.776 117.27 80.616 117.27 82.56V90H114.51V82.56C114.51 80.616 113.67 79.776 112.302 79.776C110.934 79.776 110.094 80.616 110.094 82.56V90H107.334V78H110.094V78.912C110.67 78.096 111.678 77.616 113.022 77.616C114.558 77.616 115.734 78.336 116.286 79.344C116.91 78.336 118.206 77.616 120.078 77.616ZM133.028 90.384C129.26 90.384 126.908 87.912 126.908 84C126.908 80.088 129.26 77.616 133.028 77.616C136.796 77.616 139.148 80.088 139.148 84C139.148 87.912 136.796 90.384 133.028 90.384ZM133.028 88.224C134.972 88.224 136.268 86.808 136.268 84C136.268 81.192 134.972 79.776 133.028 79.776C131.084 79.776 129.788 81.192 129.788 84C129.788 86.808 131.084 88.224 133.028 88.224ZM146.83 78V80.04H144.91V86.64C144.91 87.624 145.246 87.96 146.35 87.96H146.83V90.12H146.11C142.99 90.12 142.15 89.28 142.15 87V80.04H140.83V78H142.15V75.36L144.91 74.52V78H146.83ZM154.661 90.384C150.893 90.384 148.541 87.912 148.541 84C148.541 80.088 150.893 77.616 154.661 77.616C158.429 77.616 160.781 80.088 160.781 84C160.781 87.912 158.429 90.384 154.661 90.384ZM154.661 88.224C156.605 88.224 157.901 86.808 157.901 84C157.901 81.192 156.605 79.776 154.661 79.776C152.717 79.776 151.421 81.192 151.421 84C151.421 86.808 152.717 88.224 154.661 88.224ZM170.259 77.88H170.499V80.64H170.379C167.403 80.64 166.203 81.84 166.203 84.48V90H163.443V78H166.203V79.944C166.803 78.744 168.219 77.88 170.259 77.88ZM74.4564 121.384C69.7044 121.384 67.2084 118.888 66.9444 116.08H70.4244C70.6884 117.616 72.0564 118.984 74.4564 118.984C76.8564 118.984 77.9124 117.928 77.9124 116.8C77.9124 115.672 77.3604 115.048 75.2484 114.328L71.9364 113.2C68.5284 112.048 67.1604 110.704 67.1604 108.4C67.1604 106 69.3444 103.816 73.7844 103.816C78.3444 103.816 80.3364 105.856 80.9124 108.52H77.5524C77.1924 107.32 76.1604 106.216 73.7844 106.216C71.4084 106.216 70.4004 107.224 70.4004 108.232C70.4004 109.168 70.9764 109.768 72.9444 110.44L76.2564 111.568C79.9524 112.816 81.1524 114.232 81.1524 116.68C81.1524 119.128 78.8964 121.384 74.4564 121.384ZM91.8768 116.104V109H94.6368V121H91.8768V119.92C91.2768 120.76 90.0768 121.384 88.4208 121.384C85.3488 121.384 83.7168 119.752 83.7168 116.704V109H86.4768V116.104C86.4768 118.24 87.4128 119.176 89.1408 119.176C90.8688 119.176 91.8768 118.168 91.8768 116.104ZM100.895 106.84H98.1348V104.2H100.895V106.84ZM100.895 121H98.1348V109H100.895V121ZM109.553 109V111.04H107.633V117.64C107.633 118.624 107.969 118.96 109.073 118.96H109.553V121.12H108.833C105.713 121.12 104.873 120.28 104.873 118V111.04H103.553V109H104.873V106.36L107.633 105.52V109H109.553ZM123.12 115.576V115.72H114.192C114.336 118.072 115.608 119.224 117.264 119.224C118.824 119.224 119.592 118.456 119.808 117.52H122.808C122.376 119.608 120.6 121.384 117.264 121.384C113.664 121.384 111.288 119.008 111.288 115C111.288 110.968 113.64 108.616 117.264 108.616C120.888 108.616 123.12 110.848 123.12 115.576ZM117.264 110.728C115.584 110.728 114.336 111.88 114.192 113.68H120.192C120.048 111.76 118.944 110.728 117.264 110.728Z" fill="#9AFE27"/>
</g>
<defs>
<clipPath id="clip0_395_201">
<rect width="190" height="190" fill="white"/>
</clipPath>
</defs>
</svg>
