<svg width="190" height="190" viewBox="0 0 190 190" fill="none" xmlns="http://www.w3.org/2000/svg">
<g clip-path="url(#clip0_395_210)">
<circle cx="95" cy="95" r="94.5" stroke="#9AFE27"/>
<path d="M55.3594 103.384C50.5594 103.384 47.2714 100.096 47.2714 94.6C47.2714 89.104 50.5594 85.816 55.3594 85.816C59.6074 85.816 61.7434 87.952 62.4394 90.52H58.9594C58.4794 89.32 57.4954 88.336 55.3594 88.336C52.6474 88.336 50.5114 90.472 50.5114 94.6C50.5114 98.728 52.6474 100.864 55.3594 100.864C57.6154 100.864 58.9114 99.568 59.1994 98.08H62.6794C62.0794 101.032 59.7274 103.384 55.3594 103.384ZM70.3562 103.384C66.5882 103.384 64.2362 100.912 64.2362 97C64.2362 93.088 66.5882 90.616 70.3562 90.616C74.1242 90.616 76.4762 93.088 76.4762 97C76.4762 100.912 74.1242 103.384 70.3562 103.384ZM70.3562 101.224C72.3002 101.224 73.5962 99.808 73.5962 97C73.5962 94.192 72.3002 92.776 70.3562 92.776C68.4122 92.776 67.1162 94.192 67.1162 97C67.1162 99.808 68.4122 101.224 70.3562 101.224ZM87.4907 91.984V91H90.2507V103C90.2507 106.24 88.4027 108.088 84.8747 108.088C81.4427 108.088 79.3307 106.696 79.0187 104.224H82.3787C82.5707 105.376 83.4347 105.976 84.8747 105.976C86.6987 105.976 87.4907 105.088 87.4907 102.76V101.824C87.0107 102.712 85.8347 103.384 84.0107 103.384C80.6987 103.384 78.3227 101.008 78.3227 97C78.3227 93.088 80.6987 90.616 84.0107 90.616C85.6667 90.616 86.8427 91.168 87.4907 91.984ZM84.3707 101.224C86.3147 101.224 87.5387 99.808 87.5387 97C87.5387 94.192 86.3147 92.776 84.3707 92.776C82.5467 92.776 81.2027 94.24 81.2027 97C81.2027 99.856 82.5707 101.224 84.3707 101.224ZM104.832 99.136V86.2H107.712V103H103.512L96.7917 89.848V103H93.9117V86.2H98.3517L104.832 99.136ZM122.358 97.576V97.72H113.43C113.574 100.072 114.846 101.224 116.502 101.224C118.062 101.224 118.83 100.456 119.046 99.52H122.046C121.614 101.608 119.838 103.384 116.502 103.384C112.902 103.384 110.526 101.008 110.526 97C110.526 92.968 112.878 90.616 116.502 90.616C120.126 90.616 122.358 92.848 122.358 97.576ZM116.502 92.728C114.822 92.728 113.574 93.88 113.43 95.68H119.43C119.286 93.76 118.182 92.728 116.502 92.728ZM130.049 91V93.04H128.129V99.64C128.129 100.624 128.465 100.96 129.569 100.96H130.049V103.12H129.329C126.209 103.12 125.369 102.28 125.369 100V93.04H124.049V91H125.369V88.36L128.129 87.52V91H130.049ZM137.685 103.384C133.701 103.384 131.997 101.656 131.733 99.52H134.853C135.093 100.48 135.837 101.224 137.685 101.224C139.461 101.224 140.109 100.576 140.109 99.928C140.109 99.28 139.749 98.944 138.213 98.512L135.645 97.792C132.957 97.048 131.997 96.04 131.997 94.216C131.997 92.296 133.677 90.616 137.205 90.616C140.733 90.616 142.413 92.296 142.773 94.36H139.893C139.749 93.592 138.933 92.776 137.205 92.776C135.477 92.776 134.877 93.376 134.877 93.976C134.877 94.6 135.285 95.008 136.677 95.392L139.557 96.208C141.909 96.88 142.989 97.96 142.989 99.688C142.989 101.656 141.261 103.384 137.685 103.384Z" fill="#9AFE27"/>
</g>
<defs>
<clipPath id="clip0_395_210">
<rect width="190" height="190" fill="white"/>
</clipPath>
</defs>
</svg>
