<svg width="190" height="190" viewBox="0 0 190 190" fill="none" xmlns="http://www.w3.org/2000/svg">
<g clip-path="url(#clip0_334_57)">
<circle cx="95" cy="95" r="94.5" stroke="#9AFE27"/>
<ellipse cx="94.9922" cy="87.5" rx="6" ry="5.5" fill="#9AFE27"/>
<ellipse cx="94.9922" cy="51.5" rx="6" ry="5.5" fill="#9AFE27"/>
<circle cx="94.4922" cy="69.5" r="6" fill="#9AFE27"/>
<path d="M115.492 65.5L114.492 64.5H107.492V74.5H114.492L115.492 73.5V65.5Z" fill="#9AFE27"/>
<path d="M73.4922 73.5L74.4922 74.5H81.4922V64.5H74.4922L73.4922 65.5V73.5Z" fill="#9AFE27"/>
<path d="M107.492 57.5L106.492 56.5L82.4922 56.5L81.4922 57.5V81.5L82.4922 82.5H106.492L107.492 81.5V57.5Z" stroke="#9AFE27" stroke-width="2"/>
<ellipse cx="84.1899" cy="104.504" rx="6" ry="5.5" transform="rotate(-120 84.1899 104.504)" fill="#9AFE27"/>
<ellipse cx="53.0131" cy="122.504" rx="6" ry="5.5" transform="rotate(-120 53.0131 122.504)" fill="#9AFE27"/>
<circle cx="68.8514" cy="113.936" r="6" transform="rotate(-120 68.8514 113.936)" fill="#9AFE27"/>
<path d="M54.8875 97.75L54.5215 99.116L58.0215 105.178L66.6817 100.178L63.1817 94.116L61.8157 93.75L54.8875 97.75Z" fill="#9AFE27"/>
<path d="M82.8156 130.123L83.1816 128.757L79.6816 122.695L71.0214 127.695L74.5214 133.757L75.8874 134.123L82.8156 130.123Z" fill="#9AFE27"/>
<path d="M51.9593 108.678L51.5933 110.044L63.5933 130.829L64.9593 131.195L85.7439 119.195L86.1099 117.829L74.1099 97.0442L72.7439 96.6782L51.9593 108.678Z" stroke="#9AFE27" stroke-width="2"/>
<ellipse cx="136.69" cy="122.504" rx="6" ry="5.5" transform="rotate(-60 136.69 122.504)" fill="#9AFE27"/>
<ellipse cx="105.513" cy="104.504" rx="6" ry="5.5" transform="rotate(-60 105.513 104.504)" fill="#9AFE27"/>
<circle cx="120.851" cy="113.936" r="6" transform="rotate(-60 120.851 113.936)" fill="#9AFE27"/>
<path d="M127.888 93.75L126.521 94.116L123.021 100.178L131.682 105.178L135.182 99.116L134.816 97.75L127.888 93.75Z" fill="#9AFE27"/>
<path d="M113.816 134.123L115.182 133.757L118.682 127.695L110.021 122.695L106.521 128.757L106.887 130.123L113.816 134.123Z" fill="#9AFE27"/>
<path d="M116.959 96.6782L115.593 97.0442L103.593 117.829L103.959 119.195L124.744 131.195L126.11 130.829L138.11 110.044L137.744 108.678L116.959 96.6782Z" stroke="#9AFE27" stroke-width="2"/>
</g>
<defs>
<clipPath id="clip0_334_57">
<rect width="190" height="190" fill="white"/>
</clipPath>
</defs>
</svg>
