<svg width="190" height="190" viewBox="0 0 190 190" fill="none" xmlns="http://www.w3.org/2000/svg">
<g clip-path="url(#clip0_395_233)">
<circle cx="95" cy="95" r="94.5" stroke="#9AFE27"/>
<path d="M59.2852 87.384C54.4852 87.384 51.1972 84.096 51.1972 78.6C51.1972 73.104 54.4852 69.816 59.2852 69.816C63.5332 69.816 65.6692 71.952 66.3652 74.52H62.8852C62.4052 73.32 61.4212 72.336 59.2852 72.336C56.5732 72.336 54.4372 74.472 54.4372 78.6C54.4372 82.728 56.5732 84.864 59.2852 84.864C61.5412 84.864 62.8372 83.568 63.1252 82.08H66.6052C66.0052 85.032 63.6532 87.384 59.2852 87.384ZM80.018 81.576V81.72H71.09C71.234 84.072 72.506 85.224 74.162 85.224C75.722 85.224 76.49 84.456 76.706 83.52H79.706C79.274 85.608 77.498 87.384 74.162 87.384C70.562 87.384 68.186 85.008 68.186 81C68.186 76.968 70.538 74.616 74.162 74.616C77.786 74.616 80.018 76.848 80.018 81.576ZM74.162 76.728C72.482 76.728 71.234 77.88 71.09 79.68H77.09C76.946 77.76 75.842 76.728 74.162 76.728ZM89.0981 74.616C91.9781 74.616 93.5861 76.224 93.5861 79.056V87H90.8261V79.776C90.8261 77.736 89.8661 76.776 88.1621 76.776C86.4581 76.776 85.4261 77.808 85.4261 79.776V87H82.6661V75H85.4261V76.176C86.0501 75.312 87.3461 74.616 89.0981 74.616ZM101.982 75V77.04H100.062V83.64C100.062 84.624 100.398 84.96 101.502 84.96H101.982V87.12H101.262C98.1423 87.12 97.3023 86.28 97.3023 84V77.04H95.9823V75H97.3023V72.36L100.062 71.52V75H101.982ZM109.643 74.616C113.099 74.616 114.611 76.128 114.611 78.528V87H111.851V85.68C111.275 86.568 109.931 87.384 107.963 87.384C105.275 87.384 103.739 85.8 103.739 83.808C103.739 81.984 104.771 80.88 108.395 80.112L109.859 79.8C111.395 79.464 111.851 78.96 111.851 78.168C111.851 77.376 111.203 76.728 109.643 76.728C108.059 76.728 107.315 77.472 107.219 78.36H104.219C104.411 76.248 106.043 74.616 109.643 74.616ZM108.971 85.272C110.819 85.272 111.851 84.24 111.851 82.776V81.312C111.491 81.48 110.843 81.648 110.051 81.84L108.971 82.104C107.267 82.512 106.787 82.992 106.787 83.808C106.787 84.624 107.435 85.272 108.971 85.272ZM125.955 82.104V75H128.715V87H125.955V85.92C125.355 86.76 124.155 87.384 122.499 87.384C119.427 87.384 117.795 85.752 117.795 82.704V75H120.555V82.104C120.555 84.24 121.491 85.176 123.219 85.176C124.947 85.176 125.955 84.168 125.955 82.104ZM139.029 74.88H139.269V77.64H139.149C136.173 77.64 134.973 78.84 134.973 81.48V87H132.213V75H134.973V76.944C135.573 75.744 136.989 74.88 139.029 74.88ZM61.7533 118.384C57.0013 118.384 54.5053 115.888 54.2413 113.08H57.7213C57.9853 114.616 59.3533 115.984 61.7533 115.984C64.1533 115.984 65.2093 114.928 65.2093 113.8C65.2093 112.672 64.6573 112.048 62.5453 111.328L59.2333 110.2C55.8253 109.048 54.4573 107.704 54.4573 105.4C54.4573 103 56.6413 100.816 61.0813 100.816C65.6413 100.816 67.6333 102.856 68.2093 105.52H64.8493C64.4893 104.32 63.4573 103.216 61.0813 103.216C58.7053 103.216 57.6973 104.224 57.6973 105.232C57.6973 106.168 58.2733 106.768 60.2413 107.44L63.5533 108.568C67.2493 109.816 68.4493 111.232 68.4493 113.68C68.4493 116.128 66.1933 118.384 61.7533 118.384ZM76.2011 114.688L79.8251 106H82.5851L75.5531 122.8H72.7931L74.8091 118.096L69.4811 106H72.6011L76.2011 114.688ZM94.1154 108.04L87.2274 115.84H94.4034V118H83.6994V115.84L90.4434 108.16H84.0354V106H94.1154V108.04ZM102.146 114.688L105.77 106H108.53L101.498 122.8H98.7384L100.754 118.096L95.4264 106H98.5464L102.146 114.688ZM118.651 106.984V106H121.411V118C121.411 121.24 119.563 123.088 116.035 123.088C112.603 123.088 110.491 121.696 110.179 119.224H113.539C113.731 120.376 114.595 120.976 116.035 120.976C117.859 120.976 118.651 120.088 118.651 117.76V116.824C118.171 117.712 116.995 118.384 115.171 118.384C111.859 118.384 109.483 116.008 109.483 112C109.483 108.088 111.859 105.616 115.171 105.616C116.827 105.616 118.003 106.168 118.651 106.984ZM115.531 116.224C117.475 116.224 118.699 114.808 118.699 112C118.699 109.192 117.475 107.776 115.531 107.776C113.707 107.776 112.363 109.24 112.363 112C112.363 114.856 113.731 116.224 115.531 116.224ZM130.06 114.688L133.684 106H136.444L129.412 122.8H126.652L128.668 118.096L123.34 106H126.46L130.06 114.688Z" fill="#9AFE27"/>
</g>
<defs>
<clipPath id="clip0_395_233">
<rect width="190" height="190" fill="white"/>
</clipPath>
</defs>
</svg>
