<svg width="190" height="190" viewBox="0 0 190 190" fill="none" xmlns="http://www.w3.org/2000/svg">
<g clip-path="url(#clip0_334_70)">
<circle cx="95" cy="95" r="94.5" stroke="#9AFE27"/>
<path d="M85.4765 112.762C83.3286 114.91 79.6879 114.751 77.3448 112.408C75.0016 110.065 74.8433 106.424 76.9912 104.276C79.1391 102.129 82.7798 102.287 85.1229 104.63C87.4661 106.973 87.6244 110.614 85.4765 112.762Z" fill="#9AFE27"/>
<path d="M90.7798 124.429L65.324 98.9732L64.6168 99.6803L67.0917 113.469L49.414 116.297L49.0605 117.358L66.3846 123.368L72.395 140.692L73.4557 140.339L75.9306 122.308L90.0727 125.136L90.7798 124.429Z" fill="#9AFE27"/>
<ellipse cx="122.446" cy="66.3849" rx="6" ry="5.5" transform="rotate(-135 122.446 66.3849)" fill="#9AFE27"/>
<ellipse cx="96.9897" cy="91.8407" rx="6" ry="5.5" transform="rotate(-135 96.9897 91.8407)" fill="#9AFE27"/>
<circle cx="110.071" cy="79.4664" r="6" transform="rotate(-135 110.071 79.4664)" fill="#9AFE27"/>
<path d="M92.3936 67.4455V68.8597L97.3434 73.8094L104.414 66.7384L99.4647 61.7886H98.0505L92.3936 67.4455Z" fill="#9AFE27"/>
<path d="M127.749 91.4871V90.0729L122.799 85.1232L115.728 92.1942L120.678 97.144H122.092L127.749 91.4871Z" fill="#9AFE27"/>
<path d="M92.3936 78.7592V80.1734L109.364 97.144H110.778L127.749 80.1734V78.7592L110.778 61.7886H109.364L92.3936 78.7592Z" stroke="#9AFE27" stroke-width="2"/>
</g>
<defs>
<clipPath id="clip0_334_70">
<rect width="190" height="190" fill="white"/>
</clipPath>
</defs>
</svg>
