<svg width="190" height="190" viewBox="0 0 190 190" fill="none" xmlns="http://www.w3.org/2000/svg">
<g clip-path="url(#clip0_334_80)">
<circle cx="95" cy="95" r="94.5" stroke="#9AFE27"/>
<path d="M101 82.5C101 85.5376 98.3142 88 95.0005 88C91.6868 88 89.0005 85.5376 89.0005 82.5C89.0005 79.4624 91.6868 77 95.0005 77C98.3142 77 101 79.4624 101 82.5Z" fill="#9AFE27"/>
<path d="M113 87H77.0005V88L88.5005 96L78.0005 110.5L78.5005 111.5L95.0005 103.5L111.5 111.5L112 110.5L101 96L113 88V87Z" fill="#9AFE27"/>
<ellipse cx="38.3849" cy="56.0921" rx="6" ry="5.5" transform="rotate(135 38.3849 56.0921)" fill="#9AFE27"/>
<ellipse cx="63.8404" cy="81.5479" rx="6" ry="5.5" transform="rotate(135 63.8404 81.5479)" fill="#9AFE27"/>
<circle cx="51.4659" cy="68.4663" r="6" transform="rotate(135 51.4659 68.4663)" fill="#9AFE27"/>
<path d="M39.4452 86.144H40.8595L45.8092 81.1942L38.7381 74.1232L33.7884 79.0729V80.4871L39.4452 86.144Z" fill="#9AFE27"/>
<path d="M63.4869 50.7886H62.0727L57.1229 55.7384L64.194 62.8095L69.1437 57.8597V56.4455L63.4869 50.7886Z" fill="#9AFE27"/>
<path d="M50.7592 86.144H52.1734L69.144 69.1734V67.7592L52.1734 50.7886H50.7592L33.7886 67.7592V69.1734L50.7592 86.144Z" stroke="#9AFE27" stroke-width="2"/>
<ellipse cx="6" cy="5.5" rx="6" ry="5.5" transform="matrix(-0.707107 -0.707107 -0.707107 0.707107 134.017 81.1941)" fill="#9AFE27"/>
<ellipse cx="6" cy="5.5" rx="6" ry="5.5" transform="matrix(-0.707107 -0.707107 -0.707107 0.707107 159.472 55.7383)" fill="#9AFE27"/>
<circle cx="6" cy="6" r="6" transform="matrix(-0.707107 -0.707107 -0.707107 0.707107 147.451 68.4663)" fill="#9AFE27"/>
<path d="M126.945 50.7886H128.359L133.309 55.7384L126.238 62.8095L121.288 57.8597V56.4455L126.945 50.7886Z" fill="#9AFE27"/>
<path d="M150.987 86.144H149.573L144.623 81.1942L151.694 74.1232L156.644 79.0729V80.4871L150.987 86.144Z" fill="#9AFE27"/>
<path d="M138.259 50.7886H139.673L156.644 67.7592V69.1734L139.673 86.144H138.259L121.289 69.1734V67.7592L138.259 50.7886Z" stroke="#9AFE27" stroke-width="2"/>
<ellipse cx="94.7339" cy="121.5" rx="6" ry="5.5" transform="rotate(-180 94.7339 121.5)" fill="#9AFE27"/>
<ellipse cx="94.7339" cy="157.5" rx="6" ry="5.5" transform="rotate(-180 94.7339 157.5)" fill="#9AFE27"/>
<circle cx="95.2339" cy="139.5" r="6" transform="rotate(-180 95.2339 139.5)" fill="#9AFE27"/>
<path d="M74.2339 143.5L75.2339 144.5H82.2339V134.5H75.2339L74.2339 135.5V143.5Z" fill="#9AFE27"/>
<path d="M116.234 135.5L115.234 134.5H108.234V144.5H115.234L116.234 143.5V135.5Z" fill="#9AFE27"/>
<path d="M82.2339 151.5L83.2339 152.5H107.234L108.234 151.5V127.5L107.234 126.5H83.2339L82.2339 127.5V151.5Z" stroke="#9AFE27" stroke-width="2"/>
</g>
<defs>
<clipPath id="clip0_334_80">
<rect width="190" height="190" fill="white"/>
</clipPath>
</defs>
</svg>
