<svg width="190" height="190" viewBox="0 0 190 190" fill="none" xmlns="http://www.w3.org/2000/svg">
<g clip-path="url(#clip0_395_273)">
<circle cx="95" cy="95" r="94.5" stroke="#9AFE27"/>
<path d="M69.4699 87.384C64.6699 87.384 61.3339 84.048 61.3339 78.6C61.3339 73.152 64.6699 69.816 69.4699 69.816C74.2699 69.816 77.6059 73.152 77.6059 78.6C77.6059 84.048 74.2699 87.384 69.4699 87.384ZM69.4699 84.864C72.2299 84.864 74.3659 82.728 74.3659 78.6C74.3659 74.472 72.2299 72.336 69.4699 72.336C66.7099 72.336 64.5739 74.472 64.5739 78.6C64.5739 82.728 66.7099 84.864 69.4699 84.864ZM93.1718 74.616C95.8598 74.616 97.4918 76.248 97.4918 78.96V87H94.7318V79.56C94.7318 77.616 93.8918 76.776 92.5478 76.776C91.2038 76.776 90.3638 77.616 90.3638 79.56V87H87.6038V79.56C87.6038 77.616 86.7638 76.776 85.3958 76.776C84.0278 76.776 83.1878 77.616 83.1878 79.56V87H80.4278V75H83.1878V75.912C83.7638 75.096 84.7718 74.616 86.1158 74.616C87.6518 74.616 88.8278 75.336 89.3798 76.344C90.0038 75.336 91.2998 74.616 93.1718 74.616ZM107.274 74.616C110.154 74.616 111.762 76.224 111.762 79.056V87H109.002V79.776C109.002 77.736 108.042 76.776 106.338 76.776C104.634 76.776 103.602 77.808 103.602 79.776V87H100.842V75H103.602V76.176C104.226 75.312 105.522 74.616 107.274 74.616ZM117.875 72.84H115.115V70.2H117.875V72.84ZM117.875 87H115.115V75H117.875V87ZM128.285 81.6H121.085V79.44H128.285V81.6ZM57.1993 118.384C52.3993 118.384 49.1113 115.096 49.1113 109.6C49.1113 104.104 52.3993 100.816 57.1993 100.816C61.4473 100.816 63.5833 102.952 64.2793 105.52H60.7993C60.3193 104.32 59.3353 103.336 57.1993 103.336C54.4873 103.336 52.3513 105.472 52.3513 109.6C52.3513 113.728 54.4873 115.864 57.1993 115.864C59.4553 115.864 60.7513 114.568 61.0393 113.08H64.5193C63.9193 116.032 61.5673 118.384 57.1993 118.384ZM73.2041 105.616C76.0841 105.616 77.6441 107.176 77.6441 110.056V118H74.8841V110.776C74.8841 108.664 73.9961 107.776 72.3641 107.776C70.7081 107.776 69.6761 108.808 69.6761 110.776V118H66.9161V101.2H69.6761V107.032C70.2761 106.216 71.4761 105.616 73.2041 105.616ZM83.762 103.84H81.002V101.2H83.762V103.84ZM83.762 118H81.002V106H83.762V118ZM100.004 105.616C102.692 105.616 104.324 107.248 104.324 109.96V118H101.564V110.56C101.564 108.616 100.724 107.776 99.3798 107.776C98.0358 107.776 97.1958 108.616 97.1958 110.56V118H94.4358V110.56C94.4358 108.616 93.5958 107.776 92.2278 107.776C90.8598 107.776 90.0198 108.616 90.0198 110.56V118H87.2598V106H90.0198V106.912C90.5958 106.096 91.6038 105.616 92.9478 105.616C94.4838 105.616 95.6598 106.336 96.2118 107.344C96.8358 106.336 98.1318 105.616 100.004 105.616ZM118.69 112.576V112.72H109.762C109.906 115.072 111.178 116.224 112.834 116.224C114.394 116.224 115.162 115.456 115.378 114.52H118.378C117.946 116.608 116.17 118.384 112.834 118.384C109.234 118.384 106.858 116.008 106.858 112C106.858 107.968 109.21 105.616 112.834 105.616C116.458 105.616 118.69 107.848 118.69 112.576ZM112.834 107.728C111.154 107.728 109.906 108.88 109.762 110.68H115.762C115.618 108.76 114.514 107.728 112.834 107.728ZM128.154 105.88H128.394V108.64H128.274C125.298 108.64 124.098 109.84 124.098 112.48V118H121.338V106H124.098V107.944C124.698 106.744 126.114 105.88 128.154 105.88ZM135.401 105.616C138.857 105.616 140.369 107.128 140.369 109.528V118H137.609V116.68C137.033 117.568 135.689 118.384 133.721 118.384C131.033 118.384 129.497 116.8 129.497 114.808C129.497 112.984 130.529 111.88 134.153 111.112L135.617 110.8C137.153 110.464 137.609 109.96 137.609 109.168C137.609 108.376 136.961 107.728 135.401 107.728C133.817 107.728 133.073 108.472 132.977 109.36H129.977C130.169 107.248 131.801 105.616 135.401 105.616ZM134.729 116.272C136.577 116.272 137.609 115.24 137.609 113.776V112.312C137.249 112.48 136.601 112.648 135.809 112.84L134.729 113.104C133.025 113.512 132.545 113.992 132.545 114.808C132.545 115.624 133.193 116.272 134.729 116.272Z" fill="#9AFE27"/>
</g>
<defs>
<clipPath id="clip0_395_273">
<rect width="190" height="190" fill="white"/>
</clipPath>
</defs>
</svg>
