<svg width="190" height="190" viewBox="0 0 190 190" fill="none" xmlns="http://www.w3.org/2000/svg">
<g clip-path="url(#clip0_334_100)">
<path d="M58.6385 81.2933C56.1503 79.551 55.674 75.9382 57.5746 73.2237C59.4753 70.5093 63.0332 69.7212 65.5214 71.4635C68.0096 73.2058 68.486 76.8186 66.5853 79.5331C64.6846 82.2475 61.1267 83.0356 58.6385 81.2933Z" fill="#9AFE27"/>
<path d="M48.0694 88.542L68.7181 59.0526L67.899 58.479L54.7496 63.3106L48.8945 46.3927L47.7886 46.2287L44.8778 64.3333L28.8605 73.2607L29.3929 74.2438L47.5799 73.55L47.2502 87.9685L48.0694 88.542Z" fill="#9AFE27"/>
<path d="M101 130.5C101 133.538 98.3137 136 95 136C91.6863 136 89 133.538 89 130.5C89 127.462 91.6863 125 95 125C98.3137 125 101 127.462 101 130.5Z" fill="#9AFE27"/>
<path d="M113 135H77V136L88.5 144L78 158.5L78.5 159.5L95 151.5L111.5 159.5L112 158.5L101 144L113 136V135Z" fill="#9AFE27"/>
<path d="M124.388 71.4635C126.877 69.7212 130.435 70.5093 132.335 73.2238C134.236 75.9382 133.76 79.5511 131.271 81.2933C128.783 83.0356 125.225 82.2475 123.325 79.5331C121.424 76.8187 121.9 73.2058 124.388 71.4635Z" fill="#9AFE27"/>
<path d="M121.192 59.0526L141.84 88.5421L142.66 87.9685L142.617 73.9596L160.517 74.2439L161.049 73.2607L145.032 64.3333L142.121 46.2287L141.015 46.3927L135.447 63.7202L122.011 58.479L121.192 59.0526Z" fill="#9AFE27"/>
<ellipse cx="112.5" cy="94.5" rx="6" ry="5.5" transform="rotate(-90 112.5 94.5)" fill="#9AFE27"/>
<ellipse cx="76.5" cy="94.5" rx="6" ry="5.5" transform="rotate(-90 76.5 94.5)" fill="#9AFE27"/>
<circle cx="94.5" cy="95" r="6" transform="rotate(-90 94.5 95)" fill="#9AFE27"/>
<path d="M90.5 74L89.5 75V82H99.5V75L98.5 74H90.5Z" fill="#9AFE27"/>
<path d="M98.5 116L99.5 115V108H89.5V115L90.5 116H98.5Z" fill="#9AFE27"/>
<path d="M82.5 82L81.5 83V107L82.5 108H106.5L107.5 107V83L106.5 82H82.5Z" stroke="#9AFE27" stroke-width="2"/>
<circle cx="95" cy="95" r="94.5" stroke="#9AFE27"/>
</g>
<defs>
<clipPath id="clip0_334_100">
<rect width="190" height="190" fill="white"/>
</clipPath>
</defs>
</svg>
