<svg width="190" height="190" viewBox="0 0 190 190" fill="none" xmlns="http://www.w3.org/2000/svg">
<g clip-path="url(#clip0_395_261)">
<circle cx="95" cy="95" r="94.5" stroke="#9AFE27"/>
<path d="M61.9978 80.752L65.8858 68.2H68.8857L63.4618 85H60.3418L56.7178 72.568L53.2618 85H50.1418L44.4538 68.2H47.6938L51.7018 80.776L55.1098 68.2H58.3498L61.9978 80.752ZM80.8852 79.576V79.72H71.9572C72.1012 82.072 73.3732 83.224 75.0292 83.224C76.5892 83.224 77.3572 82.456 77.5732 81.52H80.5732C80.1412 83.608 78.3652 85.384 75.0292 85.384C71.4292 85.384 69.0532 83.008 69.0532 79C69.0532 74.968 71.4052 72.616 75.0292 72.616C78.6532 72.616 80.8852 74.848 80.8852 79.576ZM75.0292 74.728C73.3492 74.728 72.1012 75.88 71.9572 77.68H77.9572C77.8132 75.76 76.7092 74.728 75.0292 74.728ZM88.5761 73V75.04H86.6561V81.64C86.6561 82.624 86.9921 82.96 88.0961 82.96H88.5761V85.12H87.8561C84.7361 85.12 83.8961 84.28 83.8961 82V75.04H82.5761V73H83.8961V70.36L86.6561 69.52V73H88.5761ZM104.133 81.856L106.941 73H109.701L105.501 85H102.477L99.8848 76.768L97.2928 85H94.2688L89.8048 73H92.8048L95.8528 81.856L98.5408 73H101.421L104.133 81.856ZM116.627 72.616C120.083 72.616 121.595 74.128 121.595 76.528V85H118.835V83.68C118.259 84.568 116.915 85.384 114.947 85.384C112.259 85.384 110.723 83.8 110.723 81.808C110.723 79.984 111.755 78.88 115.379 78.112L116.843 77.8C118.379 77.464 118.835 76.96 118.835 76.168C118.835 75.376 118.187 74.728 116.627 74.728C115.043 74.728 114.299 75.472 114.203 76.36H111.203C111.395 74.248 113.027 72.616 116.627 72.616ZM115.955 83.272C117.803 83.272 118.835 82.24 118.835 80.776V79.312C118.475 79.48 117.827 79.648 117.035 79.84L115.955 80.104C114.251 80.512 113.771 80.992 113.771 81.808C113.771 82.624 114.419 83.272 115.955 83.272ZM131.763 72.88H132.003V75.64H131.883C128.907 75.64 127.707 76.84 127.707 79.48V85H124.947V73H127.707V74.944C128.307 73.744 129.723 72.88 131.763 72.88ZM145.01 79.576V79.72H136.082C136.226 82.072 137.498 83.224 139.154 83.224C140.714 83.224 141.482 82.456 141.698 81.52H144.698C144.266 83.608 142.49 85.384 139.154 85.384C135.554 85.384 133.178 83.008 133.178 79C133.178 74.968 135.53 72.616 139.154 72.616C142.778 72.616 145.01 74.848 145.01 79.576ZM139.154 74.728C137.474 74.728 136.226 75.88 136.082 77.68H142.082C141.938 75.76 140.834 74.728 139.154 74.728ZM23.5547 116.384C18.7547 116.384 15.4667 113.096 15.4667 107.6C15.4667 102.104 18.7547 98.816 23.5547 98.816C27.8027 98.816 29.9387 100.952 30.6347 103.52H27.1547C26.6747 102.32 25.6907 101.336 23.5547 101.336C20.8427 101.336 18.7067 103.472 18.7067 107.6C18.7067 111.728 20.8427 113.864 23.5547 113.864C25.8107 113.864 27.1067 112.568 27.3947 111.08H30.8747C30.2747 114.032 27.9227 116.384 23.5547 116.384ZM39.5595 103.616C42.4395 103.616 43.9995 105.176 43.9995 108.056V116H41.2395V108.776C41.2395 106.664 40.3515 105.776 38.7195 105.776C37.0635 105.776 36.0315 106.808 36.0315 108.776V116H33.2715V99.2H36.0315V105.032C36.6315 104.216 37.8315 103.616 39.5595 103.616ZM52.6375 116.384C48.8695 116.384 46.5175 113.912 46.5175 110C46.5175 106.088 48.8695 103.616 52.6375 103.616C56.4055 103.616 58.7575 106.088 58.7575 110C58.7575 113.912 56.4055 116.384 52.6375 116.384ZM52.6375 114.224C54.5815 114.224 55.8775 112.808 55.8775 110C55.8775 107.192 54.5815 105.776 52.6375 105.776C50.6935 105.776 49.3975 107.192 49.3975 110C49.3975 112.808 50.6935 114.224 52.6375 114.224ZM68.236 103.88H68.476V106.64H68.356C65.38 106.64 64.18 107.84 64.18 110.48V116H61.42V104H64.18V105.944C64.78 104.744 66.196 103.88 68.236 103.88ZM81.4828 110.576V110.72H72.5548C72.6988 113.072 73.9708 114.224 75.6268 114.224C77.1868 114.224 77.9548 113.456 78.1708 112.52H81.1708C80.7388 114.608 78.9628 116.384 75.6268 116.384C72.0268 116.384 69.6508 114.008 69.6508 110C69.6508 105.968 72.0028 103.616 75.6268 103.616C79.2508 103.616 81.4828 105.848 81.4828 110.576ZM75.6268 105.728C73.9468 105.728 72.6988 106.88 72.5548 108.68H78.5548C78.4108 106.76 77.3068 105.728 75.6268 105.728ZM89.4109 116.384C85.6429 116.384 83.2909 113.912 83.2909 110C83.2909 106.088 85.6429 103.616 89.4109 103.616C93.1789 103.616 95.5309 106.088 95.5309 110C95.5309 113.912 93.1789 116.384 89.4109 116.384ZM89.4109 114.224C91.3549 114.224 92.6509 112.808 92.6509 110C92.6509 107.192 91.3549 105.776 89.4109 105.776C87.4669 105.776 86.1709 107.192 86.1709 110C86.1709 112.808 87.4669 114.224 89.4109 114.224ZM106.545 104.984V104H109.305V116C109.305 119.24 107.457 121.088 103.929 121.088C100.497 121.088 98.3854 119.696 98.0734 117.224H101.433C101.625 118.376 102.489 118.976 103.929 118.976C105.753 118.976 106.545 118.088 106.545 115.76V114.824C106.065 115.712 104.889 116.384 103.065 116.384C99.7534 116.384 97.3774 114.008 97.3774 110C97.3774 106.088 99.7534 103.616 103.065 103.616C104.721 103.616 105.897 104.168 106.545 104.984ZM103.425 114.224C105.369 114.224 106.593 112.808 106.593 110C106.593 107.192 105.369 105.776 103.425 105.776C101.601 105.776 100.257 107.24 100.257 110C100.257 112.856 101.625 114.224 103.425 114.224ZM119.611 103.88H119.851V106.64H119.731C116.755 106.64 115.555 107.84 115.555 110.48V116H112.795V104H115.555V105.944C116.155 104.744 117.571 103.88 119.611 103.88ZM126.858 103.616C130.314 103.616 131.826 105.128 131.826 107.528V116H129.066V114.68C128.49 115.568 127.146 116.384 125.178 116.384C122.49 116.384 120.954 114.8 120.954 112.808C120.954 110.984 121.986 109.88 125.61 109.112L127.074 108.8C128.61 108.464 129.066 107.96 129.066 107.168C129.066 106.376 128.418 105.728 126.858 105.728C125.274 105.728 124.53 106.472 124.434 107.36H121.434C121.626 105.248 123.258 103.616 126.858 103.616ZM126.186 114.272C128.034 114.272 129.066 113.24 129.066 111.776V110.312C128.706 110.48 128.058 110.648 127.266 110.84L126.186 111.104C124.482 111.512 124.002 111.992 124.002 112.808C124.002 113.624 124.65 114.272 126.186 114.272ZM141.49 103.616C144.874 103.616 147.25 106.088 147.25 110C147.25 113.96 144.922 116.384 141.49 116.384C139.81 116.384 138.61 115.832 137.938 114.992V120.8H135.178V104H137.938V105.296C138.442 104.36 139.69 103.616 141.49 103.616ZM141.13 114.224C143.074 114.224 144.37 112.808 144.37 110C144.37 107.192 143.074 105.776 141.13 105.776C139.186 105.776 137.89 107.192 137.89 110C137.89 112.808 139.186 114.224 141.13 114.224ZM156.208 103.616C159.088 103.616 160.648 105.176 160.648 108.056V116H157.888V108.776C157.888 106.664 157 105.776 155.368 105.776C153.712 105.776 152.68 106.808 152.68 108.776V116H149.92V99.2H152.68V105.032C153.28 104.216 154.48 103.616 156.208 103.616ZM168.955 112.688L172.579 104H175.339L168.307 120.8H165.547L167.563 116.096L162.235 104H165.355L168.955 112.688Z" fill="#9AFE27"/>
</g>
<defs>
<clipPath id="clip0_395_261">
<rect width="190" height="190" fill="white"/>
</clipPath>
</defs>
</svg>
