<svg width="190" height="190" viewBox="0 0 190 190" fill="none" xmlns="http://www.w3.org/2000/svg">
<g clip-path="url(#clip0_617_227)">
<circle cx="95" cy="95" r="94.5" stroke="#9AFE27"/>
<path d="M49.9407 99.016L53.9247 86.2H58.7247V103H55.7247V89.488L51.4527 103H48.3327L43.6767 89.368V103H41.0367V86.2H45.8367L49.9407 99.016ZM71.761 99.016L75.745 86.2H80.545V103H77.545V89.488L73.273 103H70.153L65.497 89.368V103H62.857V86.2H67.657L71.761 99.016ZM99.5813 103H96.3413L94.5653 98.104H87.7733L86.0213 103H82.9013L89.2133 86.2H93.2933L99.5813 103ZM91.1333 88.672L88.6133 95.704H93.6773L91.1333 88.672ZM114.815 97.936V99.136C114.815 100.552 114.887 101.872 115.367 102.904V103H112.103C111.863 102.256 111.695 101.248 111.695 99.136V97.936C111.695 96.328 111.023 95.656 109.535 95.656H104.951V103H101.951V86.2H110.255C113.519 86.2 115.223 87.904 115.223 90.328C115.223 92.368 113.927 93.808 111.839 94.216C114.023 94.456 114.815 95.608 114.815 97.936ZM104.951 88.72V93.136H109.535C111.119 93.136 112.103 92.152 112.103 90.928C112.103 89.536 111.287 88.72 109.535 88.72H104.951ZM127.011 86.2C130.203 86.2 132.171 88.168 132.171 90.928C132.171 93.688 130.203 95.656 127.011 95.656H121.779V103H118.779V86.2H127.011ZM121.779 93.136H126.291C128.091 93.136 128.931 92.296 128.931 90.928C128.931 89.56 128.091 88.72 126.291 88.72H121.779V93.136ZM141.314 95.656V93.136H149.354V103H147.074L146.402 101.8C145.346 102.712 143.786 103.384 141.914 103.384C137.114 103.384 133.826 100.096 133.826 94.6C133.826 89.104 137.114 85.816 141.914 85.816C146.162 85.816 148.298 87.952 148.994 90.52H145.514C145.034 89.32 144.05 88.336 141.914 88.336C139.202 88.336 137.066 90.472 137.066 94.6C137.066 98.728 139.202 100.864 141.914 100.864C144.722 100.864 146.498 99.232 146.666 95.656H141.314Z" fill="#9AFE27"/>
</g>
<defs>
<clipPath id="clip0_617_227">
<rect width="190" height="190" fill="white"/>
</clipPath>
</defs>
</svg>
