<svg width="683" height="109" viewBox="0 0 683 109" fill="none" xmlns="http://www.w3.org/2000/svg">
<path d="M206.758 85.6649H219.257C222.741 85.6649 225.566 88.4892 225.566 91.9732V102.459C225.566 105.943 222.741 108.767 219.257 108.767H206.758C203.274 108.767 200.449 105.943 200.449 102.459V91.9732C200.449 88.4892 203.274 85.6649 206.758 85.6649Z" fill="black" stroke="black" stroke-width="0.0846746"/>
<mask id="path-2-inside-1_360_39" fill="white">
<path d="M288.613 108.813H263.349L227.489 42.9904C226.566 41.2976 227.792 39.2349 229.719 39.2349H249.199C250.129 39.2349 250.984 39.7431 251.429 40.5598L288.613 108.813Z"/>
<path d="M245.394 63.7802H231.174C228.142 63.7802 225.684 67.0478 225.684 71.0786V79.6689C225.684 83.6998 228.142 86.9674 231.174 86.9674H245.394C248.426 86.9674 250.884 83.6998 250.884 79.6689V71.0786C250.884 67.0478 248.426 63.7802 245.394 63.7802Z"/>
</mask>
<path d="M288.613 108.813H263.349L227.489 42.9904C226.566 41.2976 227.792 39.2349 229.719 39.2349H249.199C250.129 39.2349 250.984 39.7431 251.429 40.5598L288.613 108.813Z" fill="black"/>
<path d="M245.394 63.7802H231.174C228.142 63.7802 225.684 67.0478 225.684 71.0786V79.6689C225.684 83.6998 228.142 86.9674 231.174 86.9674H245.394C248.426 86.9674 250.884 83.6998 250.884 79.6689V71.0786C250.884 67.0478 248.426 63.7802 245.394 63.7802Z" fill="black"/>
<path d="M288.613 108.813V108.898H288.756L288.688 108.772L288.613 108.813ZM263.349 108.813L263.274 108.853L263.298 108.898H263.349V108.813ZM251.429 40.5598L251.355 40.6003L251.429 40.5598ZM227.489 42.9904L227.414 43.0309L227.489 42.9904ZM288.613 108.728H263.349V108.898H288.613V108.728ZM263.423 108.772L227.563 42.9499L227.414 43.0309L263.274 108.853L263.423 108.772ZM229.719 39.3195H249.199V39.1502H229.719V39.3195ZM251.355 40.6003L288.539 108.853L288.688 108.772L251.504 40.5193L251.355 40.6003ZM231.174 63.8649H245.394V63.6955H231.174V63.8649ZM250.8 71.0786V79.6689H250.969V71.0786H250.8ZM245.394 86.8827H231.174V87.0521H245.394V86.8827ZM225.768 79.6689V71.0786H225.599V79.6689H225.768ZM231.174 86.8827C229.69 86.8827 228.341 86.0835 227.359 84.7788C226.378 83.4741 225.768 81.6677 225.768 79.6689H225.599C225.599 81.701 226.218 83.5438 227.224 84.8806C228.23 86.2174 229.625 87.0521 231.174 87.0521V86.8827ZM250.8 79.6689C250.8 81.6677 250.19 83.4741 249.209 84.7788C248.227 86.0835 246.878 86.8827 245.394 86.8827V87.0521C246.943 87.0521 248.338 86.2174 249.344 84.8806C250.35 83.5438 250.969 81.701 250.969 79.6689H250.8ZM245.394 63.8649C246.878 63.8649 248.227 64.664 249.209 65.9687C250.19 67.2735 250.8 69.0798 250.8 71.0786H250.969C250.969 69.0466 250.35 67.2037 249.344 65.8669C248.338 64.5301 246.943 63.6955 245.394 63.6955V63.8649ZM231.174 63.6955C229.625 63.6955 228.23 64.5301 227.224 65.8669C226.218 67.2037 225.599 69.0466 225.599 71.0786H225.768C225.768 69.0798 226.378 67.2735 227.359 65.9688C228.341 64.664 229.69 63.8649 231.174 63.8649V63.6955ZM249.199 39.3195C250.098 39.3195 250.925 39.8109 251.355 40.6003L251.504 40.5193C251.044 39.6754 250.16 39.1502 249.199 39.1502V39.3195ZM227.563 42.9499C226.672 41.3136 227.856 39.3195 229.719 39.3195V39.1502C227.727 39.1502 226.461 41.2817 227.414 43.0309L227.563 42.9499Z" fill="black" mask="url(#path-2-inside-1_360_39)"/>
<path d="M50.4414 101.572V39.2743H74.3328C75.0109 39.2743 75.5606 39.824 75.5606 40.5021V107.54C75.5606 108.218 75.0109 108.768 74.3328 108.768H38.5568C38.1067 108.768 37.6928 108.521 37.4779 108.126L0.0711838 39.2743H25.1742L47.8949 102.019C48.3953 103.401 50.4414 103.042 50.4414 101.572Z" fill="black" stroke="black" stroke-width="0.0846746"/>
<path d="M155.966 101.572V39.2743H132.074C131.396 39.2743 130.846 39.824 130.846 40.5021V107.54C130.846 108.218 131.396 108.768 132.074 108.768H167.85C168.3 108.768 168.714 108.521 168.929 108.126L206.336 39.2743H181.233L158.512 102.019C158.012 103.401 155.966 103.042 155.966 101.572Z" fill="black" stroke="black" stroke-width="0.0846746"/>
<path d="M115.762 73.4946V73.4948V75.2785V75.2787L115.762 75.2862V75.2864V95.9331V95.9332L115.762 95.9408V95.9409V107.537C115.762 108.215 115.212 108.765 114.534 108.765H91.8731C91.1951 108.765 90.6454 108.215 90.6454 107.537V58.2795L90.6454 58.2721V58.2718V40.5021C90.6454 39.824 91.1951 39.2743 91.8732 39.2743H114.534C115.212 39.2743 115.762 39.824 115.762 40.5021V73.4871L115.762 73.4946Z" fill="black" stroke="black" stroke-width="0.0846746"/>
<path d="M96.9536 0.852396H109.453C112.937 0.852396 115.762 3.6767 115.762 7.16065V17.6467C115.762 21.1306 112.937 23.9549 109.453 23.9549H96.9536C93.4697 23.9549 90.6454 21.1306 90.6454 17.6467V7.16066C90.6454 3.6767 93.4697 0.852396 96.9536 0.852396Z" fill="black" stroke="black" stroke-width="0.0846746"/>
<path d="M468.265 108.754L468.266 91.9596C468.266 88.4757 471.09 85.6513 474.574 85.6513H487.073C490.557 85.6513 493.382 88.4756 493.382 91.9596V108.754H468.265ZM512.274 108.771H493.466V39.2772H518.583V102.462C518.583 105.946 515.758 108.771 512.274 108.771ZM468.181 39.2772V108.771H449.373C445.889 108.771 443.065 105.946 443.065 102.462V39.2772H468.181Z" fill="black" stroke="black" stroke-width="0.0846746"/>
<path d="M362.619 62.3797H362.594L362.582 62.4019L337.39 108.771H299.655V39.2772H324.775V101.575C324.775 103.045 326.821 103.404 327.321 102.022L337.455 74.0383L348.536 43.4376C349.44 40.9405 351.811 39.2772 354.467 39.2772H387.779V62.3797H362.619Z" fill="black" stroke="black" stroke-width="0.0846746"/>
<mask id="path-10-inside-2_360_39" fill="white">
<path fill-rule="evenodd" clip-rule="evenodd" d="M404.091 40.1196H426.752C427.454 40.1196 428.022 40.6883 428.022 41.3897V61.5238C428.022 61.5256 428.022 61.5274 428.022 61.5292V99.2311L428.022 99.2366V107.543C428.022 108.244 427.454 108.813 426.752 108.813H404.091C403.39 108.813 402.821 108.244 402.821 107.543V95.9381V86.8956V79.0916V75.2911V41.3897C402.821 40.6883 403.39 40.1196 404.091 40.1196Z"/>
</mask>
<path fill-rule="evenodd" clip-rule="evenodd" d="M404.091 40.1196H426.752C427.454 40.1196 428.022 40.6883 428.022 41.3897V61.5238C428.022 61.5256 428.022 61.5274 428.022 61.5292V99.2311L428.022 99.2366V107.543C428.022 108.244 427.454 108.813 426.752 108.813H404.091C403.39 108.813 402.821 108.244 402.821 107.543V95.9381V86.8956V79.0916V75.2911V41.3897C402.821 40.6883 403.39 40.1196 404.091 40.1196Z" fill="black"/>
<path d="M428.022 61.5238H427.938L427.938 61.5241L428.022 61.5238ZM428.022 99.2311L428.107 99.2313V99.2311H428.022ZM428.022 99.2366L427.938 99.2364V99.2366H428.022ZM426.752 40.035H404.091V40.2043H426.752V40.035ZM428.107 41.3897C428.107 40.6415 427.5 40.035 426.752 40.035V40.2043C427.407 40.2043 427.938 40.735 427.938 41.3897H428.107ZM428.107 61.5238V41.3897H427.938V61.5238H428.107ZM427.938 61.5241C427.938 61.5258 427.938 61.5275 427.938 61.5292H428.107C428.107 61.5273 428.107 61.5254 428.107 61.5234L427.938 61.5241ZM427.938 61.5292V99.2311H428.107V61.5292H427.938ZM427.938 99.2309L427.938 99.2364L428.107 99.2367L428.107 99.2313L427.938 99.2309ZM427.938 99.2366V107.543H428.107V99.2366H427.938ZM427.938 107.543C427.938 108.197 427.407 108.728 426.752 108.728V108.897C427.5 108.897 428.107 108.291 428.107 107.543H427.938ZM426.752 108.728H404.091V108.897H426.752V108.728ZM404.091 108.728C403.437 108.728 402.906 108.197 402.906 107.543H402.737C402.737 108.291 403.343 108.897 404.091 108.897V108.728ZM402.906 107.543V95.9381H402.737V107.543H402.906ZM402.906 95.9381V86.8956H402.737V95.9381H402.906ZM402.906 86.8956V79.0916H402.737V86.8956H402.906ZM402.906 79.0916V75.2911H402.737V79.0916H402.906ZM402.737 41.3897V75.2911H402.906V41.3897H402.737ZM404.091 40.035C403.343 40.035 402.737 40.6415 402.737 41.3897H402.906C402.906 40.735 403.437 40.2043 404.091 40.2043V40.035Z" fill="black" mask="url(#path-10-inside-2_360_39)"/>
<path d="M409.172 1.97447H421.672C425.156 1.97447 427.98 4.79877 427.98 8.28272V18.7687C427.98 22.2527 425.156 25.077 421.672 25.077H409.172C405.688 25.077 402.864 22.2527 402.864 18.7687V8.28273C402.864 4.79877 405.688 1.97447 409.172 1.97447Z" fill="black" stroke="black" stroke-width="0.0846746"/>
<path d="M616.436 62.3975L616.423 62.3797H616.401H599.929V39.2772H629.653C631.694 39.2772 633.608 40.264 634.792 41.9259L682.4 108.771H649.463L616.436 62.3975Z" fill="black" stroke="black" stroke-width="0.0846746"/>
<path d="M600.497 108.771C600.023 108.771 599.591 108.498 599.388 108.069L569.121 44.3095C568.521 43.0452 566.623 43.4728 566.623 44.8724V107.543C566.623 108.221 566.073 108.771 565.395 108.771H534.895C534.217 108.771 533.667 108.221 533.667 107.543V40.5051C533.667 39.827 534.217 39.2773 534.895 39.2773H582.525C582.922 39.2773 583.295 39.4694 583.525 39.7928L631.271 106.831C631.85 107.643 631.269 108.771 630.271 108.771H600.497Z" fill="black" stroke="black" stroke-width="0.0846746"/>
</svg>
