<svg width="935" height="865" viewBox="0 0 935 865" fill="none" xmlns="http://www.w3.org/2000/svg">
<path d="M57.4559 76V29.85H68.5059V50H81.5059V29.85H92.5559V76H81.5059V55.2H68.5059V76H57.4559ZM134.494 29.85V65.6C134.494 71.775 129.944 76.325 123.769 76.325H113.369C107.194 76.325 102.644 71.775 102.644 65.6V29.85H113.694V65.925C113.694 69.175 115.644 71.125 118.894 71.125H122.794C126.044 71.125 127.994 69.175 127.994 65.925V29.85H134.494ZM162.421 64.3L150.721 46.75V76H144.546V29.85H152.671L168.271 52.99L183.871 29.85H190.371V76H179.321V46.75L167.621 64.3H162.421ZM212.161 29.85H219.311L234.911 76H223.211L219.636 65.275H205.986L202.411 76H196.561L212.161 29.85ZM207.741 60.075H217.881L212.811 44.8L207.741 60.075ZM268.394 29.85H274.894V76H269.694L247.594 48.7V76H241.094V29.85H246.944L268.394 56.5V29.85ZM302.498 61.05H282.673V54.55H302.498V61.05ZM321.341 29.85H328.491L344.091 76H332.391L328.816 65.275H315.166L311.591 76H305.741L321.341 29.85ZM316.921 60.075H327.061L321.991 44.8L316.921 60.075ZM361.323 29.85V76H350.273V29.85H361.323ZM392.848 76.325C386.673 76.325 382.123 71.775 382.123 65.6V40.25C382.123 34.075 386.673 29.525 392.848 29.525H403.248C409.423 29.525 413.973 34.075 413.973 40.25V45.45H407.473V39.925C407.473 36.675 405.523 34.725 402.273 34.725H398.373C395.123 34.725 393.173 36.675 393.173 39.925V65.925C393.173 69.175 395.123 71.125 398.373 71.125H402.273C405.523 71.125 407.473 69.175 407.473 65.925V59.75H413.973V65.6C413.973 71.775 409.423 76.325 403.248 76.325H392.848ZM447.123 29.525C453.298 29.525 457.848 34.075 457.848 40.25V65.6C457.848 71.775 453.298 76.325 447.123 76.325H433.473C427.298 76.325 422.748 71.775 422.748 65.6V40.25C422.748 34.075 427.298 29.525 433.473 29.525H447.123ZM441.598 34.725H438.998C435.748 34.725 433.798 36.675 433.798 39.925V65.925C433.798 69.175 435.748 71.125 438.998 71.125H441.598C444.848 71.125 446.798 69.175 446.798 65.925V39.925C446.798 36.675 444.848 34.725 441.598 34.725ZM494.878 29.85H501.378V76H496.178L474.078 48.7V76H467.578V29.85H473.428L494.878 56.5V29.85ZM511.758 76V29.85H538.408V35.05H522.808V50.65H535.808V55.85H522.808V76H511.758ZM556.577 29.85V76H545.527V29.85H556.577ZM589.407 29.525C595.582 29.525 600.132 34.075 600.132 40.25V45.45H593.632V39.925C593.632 36.675 591.682 34.725 588.432 34.725H582.582C579.332 34.725 577.382 36.675 577.382 39.925V65.925C577.382 69.175 579.332 71.125 582.582 71.125H584.532C587.782 71.125 589.732 69.175 589.732 65.925V57.8H583.882V52.6H600.132V65.6C600.132 71.775 595.582 76.325 589.407 76.325H577.057C570.882 76.325 566.332 71.775 566.332 65.6V40.25C566.332 34.075 570.882 29.525 577.057 29.525H589.407ZM641.417 29.85V65.6C641.417 71.775 636.867 76.325 630.692 76.325H620.292C614.117 76.325 609.567 71.775 609.567 65.6V29.85H620.617V65.925C620.617 69.175 622.567 71.125 625.817 71.125H629.717C632.967 71.125 634.917 69.175 634.917 65.925V29.85H641.417ZM651.47 76V29.85H675.195C681.37 29.85 685.92 34.4 685.92 40.575V45.775C685.92 51.365 682.215 55.785 677.015 56.89L686.57 76H674.545L665.445 57.15H662.52V76H651.47ZM669.67 35.05H662.52V51.95H669.67C672.92 51.95 674.87 50 674.87 46.75V40.25C674.87 37 672.92 35.05 669.67 35.05ZM705.437 29.85H712.587L728.187 76H716.487L712.912 65.275H699.262L695.687 76H689.837L705.437 29.85ZM701.017 60.075H711.157L706.087 44.8L701.017 60.075ZM761.317 29.85V35.05H749.617V76H738.567V35.05H726.867V29.85H761.317ZM779.507 29.85V76H768.457V29.85H779.507ZM813.637 29.525C819.812 29.525 824.362 34.075 824.362 40.25V65.6C824.362 71.775 819.812 76.325 813.637 76.325H799.987C793.812 76.325 789.262 71.775 789.262 65.6V40.25C789.262 34.075 793.812 29.525 799.987 29.525H813.637ZM808.112 34.725H805.512C802.262 34.725 800.312 36.675 800.312 39.925V65.925C800.312 69.175 802.262 71.125 805.512 71.125H808.112C811.362 71.125 813.312 69.175 813.312 65.925V39.925C813.312 36.675 811.362 34.725 808.112 34.725ZM861.392 29.85H867.892V76H862.692L840.592 48.7V76H834.092V29.85H839.942L861.392 56.5V29.85ZM892.896 71.125C896.146 71.125 898.096 69.24 898.096 65.925C898.096 63.065 896.926 61.83 893.546 59.685L886.396 55.135C881.196 51.82 877.296 48.7 877.296 41.875V40.9C877.296 33.75 882.171 29.525 889.321 29.525H897.121C903.296 29.525 907.846 34.075 907.846 40.25V45.45H901.346V39.925C901.346 36.675 899.396 34.725 896.146 34.725H893.546C890.296 34.725 888.346 36.675 888.346 39.925C888.346 42.525 889.646 43.76 892.896 45.84L900.046 50.39C905.311 53.77 909.146 57.085 909.146 63.975V64.625C909.146 71.775 904.271 76.325 897.121 76.325H887.371C881.196 76.325 876.646 71.775 876.646 65.6V59.75H883.146V65.925C883.146 69.175 885.096 71.125 888.346 71.125H892.896Z" fill="#9AFE27"/>
<circle cx="340" cy="320" r="94.5" stroke="#1F2020"/>
<circle cx="340" cy="545" r="94.5" stroke="#1F2020"/>
<circle cx="575" cy="545" r="94.5" stroke="#1F2020"/>
<circle cx="810" cy="545" r="94.5" stroke="#1F2020"/>
<circle cx="340" cy="770" r="94.5" stroke="#1F2020"/>
<circle cx="575" cy="770" r="94.5" stroke="#1F2020"/>
<circle cx="810" cy="770" r="94.5" stroke="#1F2020"/>
<circle cx="575" cy="320" r="94.5" stroke="#1F2020"/>
<circle cx="810" cy="320" r="94.5" stroke="#1F2020"/>
<path d="M285.652 313.384C280.852 313.384 277.564 310.096 277.564 304.6C277.564 299.104 280.852 295.816 285.652 295.816C289.9 295.816 292.036 297.952 292.732 300.52H289.252C288.772 299.32 287.788 298.336 285.652 298.336C282.94 298.336 280.804 300.472 280.804 304.6C280.804 308.728 282.94 310.864 285.652 310.864C287.908 310.864 289.204 309.568 289.492 308.08H292.972C292.372 311.032 290.02 313.384 285.652 313.384ZM300.649 313.384C296.881 313.384 294.529 310.912 294.529 307C294.529 303.088 296.881 300.616 300.649 300.616C304.417 300.616 306.769 303.088 306.769 307C306.769 310.912 304.417 313.384 300.649 313.384ZM300.649 311.224C302.593 311.224 303.889 309.808 303.889 307C303.889 304.192 302.593 302.776 300.649 302.776C298.705 302.776 297.409 304.192 297.409 307C297.409 309.808 298.705 311.224 300.649 311.224ZM314.424 313.384C310.44 313.384 308.736 311.656 308.472 309.52H311.592C311.832 310.48 312.576 311.224 314.424 311.224C316.2 311.224 316.848 310.576 316.848 309.928C316.848 309.28 316.488 308.944 314.952 308.512L312.384 307.792C309.696 307.048 308.736 306.04 308.736 304.216C308.736 302.296 310.416 300.616 313.944 300.616C317.472 300.616 319.152 302.296 319.512 304.36H316.632C316.488 303.592 315.672 302.776 313.944 302.776C312.216 302.776 311.616 303.376 311.616 303.976C311.616 304.6 312.024 305.008 313.416 305.392L316.296 306.208C318.648 306.88 319.728 307.96 319.728 309.688C319.728 311.656 318 313.384 314.424 313.384ZM335.043 300.616C337.731 300.616 339.363 302.248 339.363 304.96V313H336.603V305.56C336.603 303.616 335.763 302.776 334.419 302.776C333.075 302.776 332.235 303.616 332.235 305.56V313H329.475V305.56C329.475 303.616 328.635 302.776 327.267 302.776C325.899 302.776 325.059 303.616 325.059 305.56V313H322.299V301H325.059V301.912C325.635 301.096 326.643 300.616 327.987 300.616C329.523 300.616 330.699 301.336 331.251 302.344C331.875 301.336 333.171 300.616 335.043 300.616ZM347.993 313.384C344.225 313.384 341.873 310.912 341.873 307C341.873 303.088 344.225 300.616 347.993 300.616C351.761 300.616 354.113 303.088 354.113 307C354.113 310.912 351.761 313.384 347.993 313.384ZM347.993 311.224C349.937 311.224 351.233 309.808 351.233 307C351.233 304.192 349.937 302.776 347.993 302.776C346.049 302.776 344.753 304.192 344.753 307C344.753 309.808 346.049 311.224 347.993 311.224ZM359.535 313H356.775V296.2H359.535V313ZM368.313 313.384C364.545 313.384 362.193 310.912 362.193 307C362.193 303.088 364.545 300.616 368.313 300.616C372.081 300.616 374.433 303.088 374.433 307C374.433 310.912 372.081 313.384 368.313 313.384ZM368.313 311.224C370.257 311.224 371.553 309.808 371.553 307C371.553 304.192 370.257 302.776 368.313 302.776C366.369 302.776 365.073 304.192 365.073 307C365.073 309.808 366.369 311.224 368.313 311.224ZM385.448 301.984V301H388.208V313C388.208 316.24 386.36 318.088 382.832 318.088C379.4 318.088 377.288 316.696 376.976 314.224H380.336C380.528 315.376 381.392 315.976 382.832 315.976C384.656 315.976 385.448 315.088 385.448 312.76V311.824C384.968 312.712 383.792 313.384 381.968 313.384C378.656 313.384 376.28 311.008 376.28 307C376.28 303.088 378.656 300.616 381.968 300.616C383.624 300.616 384.8 301.168 385.448 301.984ZM382.328 311.224C384.272 311.224 385.496 309.808 385.496 307C385.496 304.192 384.272 302.776 382.328 302.776C380.504 302.776 379.16 304.24 379.16 307C379.16 309.856 380.528 311.224 382.328 311.224ZM396.857 309.688L400.481 301H403.241L396.209 317.8H393.449L395.465 313.096L390.137 301H393.257L396.857 309.688ZM288.988 344.384C284.236 344.384 281.74 341.888 281.476 339.08H284.956C285.22 340.616 286.588 341.984 288.988 341.984C291.388 341.984 292.444 340.928 292.444 339.8C292.444 338.672 291.892 338.048 289.78 337.328L286.468 336.2C283.06 335.048 281.692 333.704 281.692 331.4C281.692 329 283.876 326.816 288.316 326.816C292.876 326.816 294.868 328.856 295.444 331.52H292.084C291.724 330.32 290.692 329.216 288.316 329.216C285.94 329.216 284.932 330.224 284.932 331.232C284.932 332.168 285.508 332.768 287.476 333.44L290.788 334.568C294.484 335.816 295.684 337.232 295.684 339.68C295.684 342.128 293.428 344.384 288.988 344.384ZM301.176 329.84H298.416V327.2H301.176V329.84ZM301.176 344H298.416V332H301.176V344ZM317.418 331.616C320.106 331.616 321.738 333.248 321.738 335.96V344H318.978V336.56C318.978 334.616 318.138 333.776 316.794 333.776C315.45 333.776 314.61 334.616 314.61 336.56V344H311.85V336.56C311.85 334.616 311.01 333.776 309.642 333.776C308.274 333.776 307.434 334.616 307.434 336.56V344H304.674V332H307.434V332.912C308.01 332.096 309.018 331.616 310.362 331.616C311.898 331.616 313.074 332.336 313.626 333.344C314.25 332.336 315.546 331.616 317.418 331.616ZM333.08 339.104V332H335.84V344H333.08V342.92C332.48 343.76 331.28 344.384 329.624 344.384C326.552 344.384 324.92 342.752 324.92 339.704V332H327.68V339.104C327.68 341.24 328.616 342.176 330.344 342.176C332.072 342.176 333.08 341.168 333.08 339.104ZM342.098 344H339.338V327.2H342.098V344ZM350.612 331.616C354.068 331.616 355.58 333.128 355.58 335.528V344H352.82V342.68C352.244 343.568 350.9 344.384 348.932 344.384C346.244 344.384 344.708 342.8 344.708 340.808C344.708 338.984 345.74 337.88 349.364 337.112L350.828 336.8C352.364 336.464 352.82 335.96 352.82 335.168C352.82 334.376 352.172 333.728 350.612 333.728C349.028 333.728 348.284 334.472 348.188 335.36H345.188C345.38 333.248 347.012 331.616 350.612 331.616ZM349.94 342.272C351.788 342.272 352.82 341.24 352.82 339.776V338.312C352.46 338.48 351.812 338.648 351.02 338.84L349.94 339.104C348.236 339.512 347.756 339.992 347.756 340.808C347.756 341.624 348.404 342.272 349.94 342.272ZM363.998 332V334.04H362.078V340.64C362.078 341.624 362.414 341.96 363.518 341.96H363.998V344.12H363.278C360.158 344.12 359.318 343.28 359.318 341V334.04H357.998V332H359.318V329.36L362.078 328.52V332H363.998ZM369.403 329.84H366.643V327.2H369.403V329.84ZM369.403 344H366.643V332H369.403V344ZM378.18 344.384C374.412 344.384 372.06 341.912 372.06 338C372.06 334.088 374.412 331.616 378.18 331.616C381.948 331.616 384.3 334.088 384.3 338C384.3 341.912 381.948 344.384 378.18 344.384ZM378.18 342.224C380.124 342.224 381.42 340.808 381.42 338C381.42 335.192 380.124 333.776 378.18 333.776C376.236 333.776 374.94 335.192 374.94 338C374.94 340.808 376.236 342.224 378.18 342.224ZM393.395 331.616C396.275 331.616 397.883 333.224 397.883 336.056V344H395.123V336.776C395.123 334.736 394.163 333.776 392.459 333.776C390.755 333.776 389.723 334.808 389.723 336.776V344H386.963V332H389.723V333.176C390.347 332.312 391.643 331.616 393.395 331.616Z" fill="#D4D3A6"/>
<path d="M311.797 144.6H314.877V173H312.317L298.397 153.2V173H295.317V144.6H298.197L311.797 164V144.6ZM335.198 144.4C338.998 144.4 341.798 147.2 341.798 151V166.6C341.798 170.4 338.998 173.2 335.198 173.2H328.118C324.318 173.2 321.518 170.4 321.518 166.6V151C321.518 147.2 324.318 144.4 328.118 144.4H335.198ZM332.718 146.88H330.598C328.078 146.88 326.598 148.32 326.598 150.88V166.72C326.598 169.28 328.078 170.72 330.598 170.72H332.718C335.278 170.72 336.718 169.28 336.718 166.72V150.88C336.718 148.32 335.278 146.88 332.718 146.88ZM362.392 144.6H365.712L375.312 173H369.992L367.432 165.36H358.192L355.632 173H352.792L362.392 144.6ZM359.032 162.88H366.592L362.832 151.56L359.032 162.88ZM384.694 144.6V173H379.614V144.6H384.694Z" fill="#1F2020"/>
<path d="M118.438 273.6H121.518V302H118.958L105.038 282.2V302H101.958V273.6H104.838L118.438 293V273.6ZM141.839 273.4C145.639 273.4 148.439 276.2 148.439 280V295.6C148.439 299.4 145.639 302.2 141.839 302.2H134.759C130.959 302.2 128.159 299.4 128.159 295.6V280C128.159 276.2 130.959 273.4 134.759 273.4H141.839ZM139.359 275.88H137.239C134.719 275.88 133.239 277.32 133.239 279.88V295.72C133.239 298.28 134.719 299.72 137.239 299.72H139.359C141.919 299.72 143.359 298.28 143.359 295.72V279.88C143.359 277.32 141.919 275.88 139.359 275.88ZM60.3559 353V324.6H65.4359V337.28H75.3159V324.6H80.3559V353H75.3159V339.72H65.4359V353H60.3559ZM105.826 324.6V346.6C105.826 350.4 103.026 353.2 99.2263 353.2H93.8263C90.0263 353.2 87.2263 350.4 87.2263 346.6V324.6H92.3063V346.68C92.3063 349.2 93.7863 350.68 96.3063 350.68H98.7863C101.306 350.68 102.786 349.2 102.786 346.68V324.6H105.826ZM123.58 345.12L115.66 332.4V353H112.7V324.6H116.54L126.18 339.8L135.82 324.6H138.9V353H133.86V332.48L125.98 345.12H123.58ZM152.861 324.6H156.181L165.781 353H160.461L157.901 345.36H148.661L146.101 353H143.261L152.861 324.6ZM149.501 342.88H157.061L153.301 331.56L149.501 342.88ZM186.562 324.6H189.643V353H187.083L173.163 333.2V353H170.083V324.6H172.963L186.562 344V324.6Z" fill="#1F2020"/>
<path d="M71.8698 529.72C74.4298 529.72 75.8698 528.28 75.8698 525.68C75.8698 523.64 75.0298 522.56 72.6298 521.2L67.9098 518.44C64.6298 516.52 62.5098 514.52 62.5098 510.76V510.32C62.5098 506.08 65.4698 503.4 69.6698 503.4H73.7898C77.5098 503.4 80.2698 506.12 80.2698 509.88V512.92H77.1898V509.88C77.1898 507.32 75.7098 505.88 73.1898 505.88H71.5898C69.0698 505.88 67.5898 507.4 67.5898 509.88C67.5898 511.8 68.5098 512.8 70.8298 514.16L75.5498 516.88C78.8698 518.84 80.9098 520.96 80.9098 524.76V525.08C80.9098 529.4 77.9898 532.2 73.7898 532.2H68.5898C64.8698 532.2 62.1098 529.48 62.1098 525.72V522.4H65.1898V525.72C65.1898 528.28 66.6698 529.72 69.1898 529.72H71.8698ZM91.9789 503.6V532H86.8989V503.6H91.9789ZM115.488 503.6H118.568V532H116.008L102.088 512.2V532H99.0083V503.6H101.888L115.488 523V503.6ZM138.21 503.4C141.97 503.4 144.69 506.12 144.69 509.88V512.92H141.61V509.88C141.61 507.32 140.17 505.88 137.61 505.88H134.29C131.77 505.88 130.29 507.32 130.29 509.88V525.72C130.29 528.28 131.77 529.72 134.29 529.72H135.97C138.49 529.72 139.97 528.28 139.97 525.72V520.08H135.09V517.6H144.69V525.6C144.69 529.4 141.89 532.2 138.09 532.2H131.81C128.01 532.2 125.21 529.4 125.21 525.6V510C125.21 506.2 128.01 503.4 131.81 503.4H138.21ZM151.313 503.6H156.393V529.52H167.473V532H151.313V503.6ZM188.781 529.52V532H171.821V503.6H188.381V506.08H176.901V516.28H185.581V518.72H176.901V529.52H188.781ZM60.3559 583V554.6H65.4359V567.28H75.3159V554.6H80.3559V583H75.3159V569.72H65.4359V583H60.3559ZM105.826 554.6V576.6C105.826 580.4 103.026 583.2 99.2263 583.2H93.8263C90.0263 583.2 87.2263 580.4 87.2263 576.6V554.6H92.3063V576.68C92.3063 579.2 93.7863 580.68 96.3063 580.68H98.7863C101.306 580.68 102.786 579.2 102.786 576.68V554.6H105.826ZM123.58 575.12L115.66 562.4V583H112.7V554.6H116.54L126.18 569.8L135.82 554.6H138.9V583H133.86V562.48L125.98 575.12H123.58ZM152.861 554.6H156.181L165.781 583H160.461L157.901 575.36H148.661L146.101 583H143.261L152.861 554.6ZM149.501 572.88H157.061L153.301 561.56L149.501 572.88ZM186.562 554.6H189.643V583H187.083L173.163 563.2V583H170.083V554.6H172.963L186.562 574V554.6Z" fill="#1F2020"/>
<path d="M86.0016 765.12L78.0816 752.4V773H75.1216V744.6H78.9616L88.6016 759.8L98.2416 744.6H101.322V773H96.2816V752.48L88.4016 765.12H86.0016ZM115.283 744.6H118.603L128.203 773H122.883L120.323 765.36H111.083L108.523 773H105.683L115.283 744.6ZM111.923 762.88H119.483L115.723 751.56L111.923 762.88ZM148.984 744.6H152.064V773H149.504L135.584 753.2V773H132.504V744.6H135.384L148.984 764V744.6ZM174.666 744.6H177.786L169.506 760.04V773H164.466V760.04L156.186 744.6H161.586L168.146 756.72L174.666 744.6ZM48.4614 824V795.6H53.5414V808.28H63.4214V795.6H68.4614V824H63.4214V810.72H53.5414V824H48.4614ZM93.9317 795.6V817.6C93.9317 821.4 91.1317 824.2 87.3317 824.2H81.9317C78.1317 824.2 75.3317 821.4 75.3317 817.6V795.6H80.4117V817.68C80.4117 820.2 81.8917 821.68 84.4117 821.68H86.8917C89.4117 821.68 90.8917 820.2 90.8917 817.68V795.6H93.9317ZM111.685 816.12L103.765 803.4V824H100.805V795.6H104.645L114.285 810.8L123.925 795.6H127.005V824H121.965V803.48L114.085 816.12H111.685ZM140.966 795.6H144.286L153.886 824H148.566L146.006 816.36H136.766L134.206 824H131.366L140.966 795.6ZM137.606 813.88H145.166L141.406 802.56L137.606 813.88ZM174.668 795.6H177.748V824H175.188L161.268 804.2V824H158.188V795.6H161.068L174.668 815V795.6ZM193.55 821.72C196.11 821.72 197.55 820.28 197.55 817.68C197.55 815.64 196.71 814.56 194.31 813.2L189.59 810.44C186.31 808.52 184.19 806.52 184.19 802.76V802.32C184.19 798.08 187.15 795.4 191.35 795.4H195.47C199.19 795.4 201.95 798.12 201.95 801.88V804.92H198.87V801.88C198.87 799.32 197.39 797.88 194.87 797.88H193.27C190.75 797.88 189.27 799.4 189.27 801.88C189.27 803.8 190.19 804.8 192.51 806.16L197.23 808.88C200.55 810.84 202.59 812.96 202.59 816.76V817.08C202.59 821.4 199.67 824.2 195.47 824.2H190.27C186.55 824.2 183.79 821.48 183.79 817.72V814.4H186.87V817.72C186.87 820.28 188.35 821.72 190.87 821.72H193.55Z" fill="#1F2020"/>
<path d="M505.229 170.72C507.789 170.72 509.229 169.28 509.229 166.68C509.229 164.64 508.389 163.56 505.989 162.2L501.269 159.44C497.989 157.52 495.869 155.52 495.869 151.76V151.32C495.869 147.08 498.829 144.4 503.029 144.4H507.149C510.869 144.4 513.629 147.12 513.629 150.88V153.92H510.549V150.88C510.549 148.32 509.069 146.88 506.549 146.88H504.949C502.429 146.88 500.949 148.4 500.949 150.88C500.949 152.8 501.869 153.8 504.189 155.16L508.909 157.88C512.229 159.84 514.269 161.96 514.269 165.76V166.08C514.269 170.4 511.349 173.2 507.149 173.2H501.949C498.229 173.2 495.469 170.48 495.469 166.72V163.4H498.549V166.72C498.549 169.28 500.029 170.72 502.549 170.72H505.229ZM525.338 144.6V173H520.258V144.6H525.338ZM548.848 144.6H551.928V173H549.368L535.448 153.2V173H532.368V144.6H535.248L548.848 164V144.6ZM571.569 144.4C575.329 144.4 578.049 147.12 578.049 150.88V153.92H574.969V150.88C574.969 148.32 573.529 146.88 570.969 146.88H567.649C565.129 146.88 563.649 148.32 563.649 150.88V166.72C563.649 169.28 565.129 170.72 567.649 170.72H569.329C571.849 170.72 573.329 169.28 573.329 166.72V161.08H568.449V158.6H578.049V166.6C578.049 170.4 575.249 173.2 571.449 173.2H565.169C561.369 173.2 558.569 170.4 558.569 166.6V151C558.569 147.2 561.369 144.4 565.169 144.4H571.569ZM584.672 144.6H589.752V170.52H600.832V173H584.672V144.6ZM622.14 170.52V173H605.18V144.6H621.74V147.08H610.26V157.28H618.94V159.72H610.26V170.52H622.14ZM641.24 144.6H644.56L654.16 173H648.84L646.28 165.36H637.04L634.48 173H631.64L641.24 144.6ZM637.88 162.88H645.44L641.68 151.56L637.88 162.88ZM663.541 144.6V173H658.461V144.6H663.541Z" fill="#1F2020"/>
<path d="M738.853 165.12L730.933 152.4V173H727.973V144.6H731.813L741.453 159.8L751.093 144.6H754.173V173H749.133V152.48L741.253 165.12H738.853ZM768.134 144.6H771.454L781.054 173H775.734L773.174 165.36H763.934L761.374 173H758.534L768.134 144.6ZM764.774 162.88H772.334L768.574 151.56L764.774 162.88ZM801.836 144.6H804.916V173H802.356L788.436 153.2V173H785.356V144.6H788.236L801.836 164V144.6ZM827.518 144.6H830.638L822.358 160.04V173H817.318V160.04L809.038 144.6H814.438L820.998 156.72L827.518 144.6ZM848.72 144.6H852.04L861.64 173H856.32L853.76 165.36H844.52L841.96 173H839.12L848.72 144.6ZM845.36 162.88H852.92L849.16 151.56L845.36 162.88ZM871.022 144.6V173H865.942V144.6H871.022ZM883.011 173.2C879.131 173.2 876.451 170.52 876.451 166.68H879.491C879.491 169.12 881.051 170.72 883.531 170.72H885.611C887.531 170.72 888.811 169.64 888.811 167.8C888.811 166.16 887.811 165.28 885.971 164.6L881.811 163.04C878.451 161.8 877.011 159.72 877.011 157C877.011 153.44 879.731 150.8 883.251 150.8H886.411C890.171 150.8 892.731 153.4 892.731 157.12H889.691C889.691 154.8 888.211 153.28 885.851 153.28H884.531C882.731 153.28 881.451 154.36 881.451 156.12C881.451 157.56 882.211 158.56 884.291 159.32L888.411 160.8C891.891 162.08 893.411 164.24 893.411 166.92C893.411 170.56 890.731 173.2 887.051 173.2H883.011Z" fill="#1F2020"/>
<path d="M764.941 774.016L768.925 761.2H773.725V778H770.725V764.488L766.453 778H763.333L758.677 764.368V778H756.037V761.2H760.837L764.941 774.016ZM786.761 774.016L790.745 761.2H795.545V778H792.545V764.488L788.273 778H785.153L780.497 764.368V778H777.857V761.2H782.657L786.761 774.016ZM814.581 778H811.341L809.565 773.104H802.773L801.021 778H797.901L804.213 761.2H808.293L814.581 778ZM806.133 763.672L803.613 770.704H808.677L806.133 763.672ZM829.815 772.936V774.136C829.815 775.552 829.887 776.872 830.367 777.904V778H827.103C826.863 777.256 826.695 776.248 826.695 774.136V772.936C826.695 771.328 826.023 770.656 824.535 770.656H819.951V778H816.951V761.2H825.255C828.519 761.2 830.223 762.904 830.223 765.328C830.223 767.368 828.927 768.808 826.839 769.216C829.023 769.456 829.815 770.608 829.815 772.936ZM819.951 763.72V768.136H824.535C826.119 768.136 827.103 767.152 827.103 765.928C827.103 764.536 826.287 763.72 824.535 763.72H819.951ZM842.011 761.2C845.203 761.2 847.171 763.168 847.171 765.928C847.171 768.688 845.203 770.656 842.011 770.656H836.779V778H833.779V761.2H842.011ZM836.779 768.136H841.291C843.091 768.136 843.931 767.296 843.931 765.928C843.931 764.56 843.091 763.72 841.291 763.72H836.779V768.136ZM856.314 770.656V768.136H864.354V778H862.074L861.402 776.8C860.346 777.712 858.786 778.384 856.914 778.384C852.114 778.384 848.826 775.096 848.826 769.6C848.826 764.104 852.114 760.816 856.914 760.816C861.162 760.816 863.298 762.952 863.994 765.52H860.514C860.034 764.32 859.05 763.336 856.914 763.336C854.202 763.336 852.066 765.472 852.066 769.6C852.066 773.728 854.202 775.864 856.914 775.864C859.722 775.864 861.498 774.232 861.666 770.656H856.314Z" fill="#D4D3A6"/>
<path d="M272.523 553.384C267.771 553.384 265.275 550.888 265.011 548.08H268.491C268.755 549.616 270.123 550.984 272.523 550.984C274.923 550.984 275.979 549.928 275.979 548.8C275.979 547.672 275.427 547.048 273.315 546.328L270.003 545.2C266.595 544.048 265.227 542.704 265.227 540.4C265.227 538 267.411 535.816 271.851 535.816C276.411 535.816 278.403 537.856 278.979 540.52H275.619C275.259 539.32 274.227 538.216 271.851 538.216C269.475 538.216 268.467 539.224 268.467 540.232C268.467 541.168 269.043 541.768 271.011 542.44L274.323 543.568C278.019 544.816 279.219 546.232 279.219 548.68C279.219 551.128 276.963 553.384 272.523 553.384ZM284.711 538.84H281.951V536.2H284.711V538.84ZM284.711 553H281.951V541H284.711V553ZM294.641 540.616C297.521 540.616 299.129 542.224 299.129 545.056V553H296.369V545.776C296.369 543.736 295.409 542.776 293.705 542.776C292.001 542.776 290.969 543.808 290.969 545.776V553H288.209V541H290.969V542.176C291.593 541.312 292.889 540.616 294.641 540.616ZM310.834 541.984V541H313.594V553C313.594 556.24 311.746 558.088 308.218 558.088C304.786 558.088 302.674 556.696 302.362 554.224H305.722C305.914 555.376 306.778 555.976 308.218 555.976C310.042 555.976 310.834 555.088 310.834 552.76V551.824C310.354 552.712 309.178 553.384 307.354 553.384C304.042 553.384 301.666 551.008 301.666 547C301.666 543.088 304.042 540.616 307.354 540.616C309.01 540.616 310.186 541.168 310.834 541.984ZM307.714 551.224C309.658 551.224 310.882 549.808 310.882 547C310.882 544.192 309.658 542.776 307.714 542.776C305.89 542.776 304.546 544.24 304.546 547C304.546 549.856 305.914 551.224 307.714 551.224ZM319.844 553H317.084V536.2H319.844V553ZM334.358 547.576V547.72H325.43C325.574 550.072 326.846 551.224 328.502 551.224C330.062 551.224 330.83 550.456 331.046 549.52H334.046C333.614 551.608 331.838 553.384 328.502 553.384C324.902 553.384 322.526 551.008 322.526 547C322.526 542.968 324.878 540.616 328.502 540.616C332.126 540.616 334.358 542.848 334.358 547.576ZM328.502 542.728C326.822 542.728 325.574 543.88 325.43 545.68H331.43C331.286 543.76 330.182 542.728 328.502 542.728ZM343.918 547.6H336.718V545.44H343.918V547.6ZM353.443 540.616C356.827 540.616 359.203 543.088 359.203 547C359.203 550.96 356.875 553.384 353.443 553.384C351.763 553.384 350.563 552.832 349.891 551.992V557.8H347.131V541H349.891V542.296C350.395 541.36 351.643 540.616 353.443 540.616ZM353.083 551.224C355.027 551.224 356.323 549.808 356.323 547C356.323 544.192 355.027 542.776 353.083 542.776C351.139 542.776 349.843 544.192 349.843 547C349.843 549.808 351.139 551.224 353.083 551.224ZM364.633 553H361.873V536.2H364.633V553ZM373.147 540.616C376.603 540.616 378.115 542.128 378.115 544.528V553H375.355V551.68C374.779 552.568 373.435 553.384 371.467 553.384C368.779 553.384 367.243 551.8 367.243 549.808C367.243 547.984 368.275 546.88 371.899 546.112L373.363 545.8C374.899 545.464 375.355 544.96 375.355 544.168C375.355 543.376 374.707 542.728 373.147 542.728C371.563 542.728 370.819 543.472 370.723 544.36H367.723C367.915 542.248 369.547 540.616 373.147 540.616ZM372.475 551.272C374.323 551.272 375.355 550.24 375.355 548.776V547.312C374.995 547.48 374.347 547.648 373.555 547.84L372.475 548.104C370.771 548.512 370.291 548.992 370.291 549.808C370.291 550.624 370.939 551.272 372.475 551.272ZM386.463 549.688L390.087 541H392.847L385.815 557.8H383.055L385.071 553.096L379.743 541H382.863L386.463 549.688ZM405.631 547.576V547.72H396.703C396.847 550.072 398.119 551.224 399.775 551.224C401.335 551.224 402.103 550.456 402.319 549.52H405.319C404.887 551.608 403.111 553.384 399.775 553.384C396.175 553.384 393.799 551.008 393.799 547C393.799 542.968 396.151 540.616 399.775 540.616C403.399 540.616 405.631 542.848 405.631 547.576ZM399.775 542.728C398.095 542.728 396.847 543.88 396.703 545.68H402.703C402.559 543.76 401.455 542.728 399.775 542.728ZM415.095 540.88H415.335V543.64H415.215C412.239 543.64 411.039 544.84 411.039 547.48V553H408.279V541H411.039V542.944C411.639 541.744 413.055 540.88 415.095 540.88Z" fill="#D4D3A6"/>
<path d="M294.366 774.016L298.35 761.2H303.15V778H300.15V764.488L295.878 778H292.758L288.102 764.368V778H285.462V761.2H290.262L294.366 774.016ZM316.187 774.016L320.171 761.2H324.971V778H321.971V764.488L317.699 778H314.579L309.923 764.368V778H307.283V761.2H312.083L316.187 774.016ZM336.255 778.384C331.455 778.384 328.119 775.048 328.119 769.6C328.119 764.152 331.455 760.816 336.255 760.816C341.055 760.816 344.391 764.152 344.391 769.6C344.391 775.048 341.055 778.384 336.255 778.384ZM336.255 775.864C339.015 775.864 341.151 773.728 341.151 769.6C341.151 765.472 339.015 763.336 336.255 763.336C333.495 763.336 331.359 765.472 331.359 769.6C331.359 773.728 333.495 775.864 336.255 775.864ZM360.389 772.936V774.136C360.389 775.552 360.461 776.872 360.941 777.904V778H357.677C357.437 777.256 357.269 776.248 357.269 774.136V772.936C357.269 771.328 356.597 770.656 355.109 770.656H350.525V778H347.525V761.2H355.829C359.093 761.2 360.797 762.904 360.797 765.328C360.797 767.368 359.501 768.808 357.413 769.216C359.597 769.456 360.389 770.608 360.389 772.936ZM350.525 763.72V768.136H355.109C356.693 768.136 357.677 767.152 357.677 765.928C357.677 764.536 356.861 763.72 355.109 763.72H350.525ZM372.585 761.2C375.777 761.2 377.745 763.168 377.745 765.928C377.745 768.688 375.777 770.656 372.585 770.656H367.353V778H364.353V761.2H372.585ZM367.353 768.136H371.865C373.665 768.136 374.505 767.296 374.505 765.928C374.505 764.56 373.665 763.72 371.865 763.72H367.353V768.136ZM386.888 770.656V768.136H394.928V778H392.648L391.976 776.8C390.92 777.712 389.36 778.384 387.488 778.384C382.688 778.384 379.4 775.096 379.4 769.6C379.4 764.104 382.688 760.816 387.488 760.816C391.736 760.816 393.872 762.952 394.568 765.52H391.088C390.608 764.32 389.624 763.336 387.488 763.336C384.776 763.336 382.64 765.472 382.64 769.6C382.64 773.728 384.776 775.864 387.488 775.864C390.296 775.864 392.072 774.232 392.24 770.656H386.888Z" fill="#D4D3A6"/>
<path d="M507.359 313.384C502.607 313.384 500.111 310.888 499.847 308.08H503.327C503.591 309.616 504.959 310.984 507.359 310.984C509.759 310.984 510.815 309.928 510.815 308.8C510.815 307.672 510.263 307.048 508.151 306.328L504.839 305.2C501.431 304.048 500.063 302.704 500.063 300.4C500.063 298 502.247 295.816 506.687 295.816C511.247 295.816 513.239 297.856 513.815 300.52H510.455C510.095 299.32 509.063 298.216 506.687 298.216C504.311 298.216 503.303 299.224 503.303 300.232C503.303 301.168 503.879 301.768 505.847 302.44L509.159 303.568C512.855 304.816 514.055 306.232 514.055 308.68C514.055 311.128 511.799 313.384 507.359 313.384ZM527.803 307.576V307.72H518.875C519.019 310.072 520.291 311.224 521.947 311.224C523.507 311.224 524.275 310.456 524.491 309.52H527.491C527.059 311.608 525.283 313.384 521.947 313.384C518.347 313.384 515.971 311.008 515.971 307C515.971 302.968 518.323 300.616 521.947 300.616C525.571 300.616 527.803 302.848 527.803 307.576ZM521.947 302.728C520.267 302.728 519.019 303.88 518.875 305.68H524.875C524.731 303.76 523.627 302.728 521.947 302.728ZM536.883 300.616C539.763 300.616 541.371 302.224 541.371 305.056V313H538.611V305.776C538.611 303.736 537.651 302.776 535.947 302.776C534.243 302.776 533.211 303.808 533.211 305.776V313H530.451V301H533.211V302.176C533.835 301.312 535.131 300.616 536.883 300.616ZM549.717 313.384C545.733 313.384 544.029 311.656 543.765 309.52H546.885C547.125 310.48 547.869 311.224 549.717 311.224C551.493 311.224 552.141 310.576 552.141 309.928C552.141 309.28 551.781 308.944 550.245 308.512L547.677 307.792C544.989 307.048 544.029 306.04 544.029 304.216C544.029 302.296 545.709 300.616 549.237 300.616C552.765 300.616 554.445 302.296 554.805 304.36H551.925C551.781 303.592 550.965 302.776 549.237 302.776C547.509 302.776 546.909 303.376 546.909 303.976C546.909 304.6 547.317 305.008 548.709 305.392L551.589 306.208C553.941 306.88 555.021 307.96 555.021 309.688C555.021 311.656 553.293 313.384 549.717 313.384ZM562.872 313.384C559.104 313.384 556.752 310.912 556.752 307C556.752 303.088 559.104 300.616 562.872 300.616C566.64 300.616 568.992 303.088 568.992 307C568.992 310.912 566.64 313.384 562.872 313.384ZM562.872 311.224C564.816 311.224 566.112 309.808 566.112 307C566.112 304.192 564.816 302.776 562.872 302.776C560.928 302.776 559.632 304.192 559.632 307C559.632 309.808 560.928 311.224 562.872 311.224ZM578.47 300.88H578.71V303.64H578.59C575.614 303.64 574.414 304.84 574.414 307.48V313H571.654V301H574.414V302.944C575.014 301.744 576.43 300.88 578.47 300.88ZM583.836 298.84H581.076V296.2H583.836V298.84ZM583.836 313H581.076V301H583.836V313ZM600.078 300.616C602.766 300.616 604.398 302.248 604.398 304.96V313H601.638V305.56C601.638 303.616 600.798 302.776 599.454 302.776C598.11 302.776 597.27 303.616 597.27 305.56V313H594.51V305.56C594.51 303.616 593.67 302.776 592.302 302.776C590.934 302.776 590.094 303.616 590.094 305.56V313H587.334V301H590.094V301.912C590.67 301.096 591.678 300.616 593.022 300.616C594.558 300.616 595.734 301.336 596.286 302.344C596.91 301.336 598.206 300.616 600.078 300.616ZM613.028 313.384C609.26 313.384 606.908 310.912 606.908 307C606.908 303.088 609.26 300.616 613.028 300.616C616.796 300.616 619.148 303.088 619.148 307C619.148 310.912 616.796 313.384 613.028 313.384ZM613.028 311.224C614.972 311.224 616.268 309.808 616.268 307C616.268 304.192 614.972 302.776 613.028 302.776C611.084 302.776 609.788 304.192 609.788 307C609.788 309.808 611.084 311.224 613.028 311.224ZM626.83 301V303.04H624.91V309.64C624.91 310.624 625.246 310.96 626.35 310.96H626.83V313.12H626.11C622.99 313.12 622.15 312.28 622.15 310V303.04H620.83V301H622.15V298.36L624.91 297.52V301H626.83ZM634.661 313.384C630.893 313.384 628.541 310.912 628.541 307C628.541 303.088 630.893 300.616 634.661 300.616C638.429 300.616 640.781 303.088 640.781 307C640.781 310.912 638.429 313.384 634.661 313.384ZM634.661 311.224C636.605 311.224 637.901 309.808 637.901 307C637.901 304.192 636.605 302.776 634.661 302.776C632.717 302.776 631.421 304.192 631.421 307C631.421 309.808 632.717 311.224 634.661 311.224ZM650.259 300.88H650.499V303.64H650.379C647.403 303.64 646.203 304.84 646.203 307.48V313H643.443V301H646.203V302.944C646.803 301.744 648.219 300.88 650.259 300.88ZM554.456 344.384C549.704 344.384 547.208 341.888 546.944 339.08H550.424C550.688 340.616 552.056 341.984 554.456 341.984C556.856 341.984 557.912 340.928 557.912 339.8C557.912 338.672 557.36 338.048 555.248 337.328L551.936 336.2C548.528 335.048 547.16 333.704 547.16 331.4C547.16 329 549.344 326.816 553.784 326.816C558.344 326.816 560.336 328.856 560.912 331.52H557.552C557.192 330.32 556.16 329.216 553.784 329.216C551.408 329.216 550.4 330.224 550.4 331.232C550.4 332.168 550.976 332.768 552.944 333.44L556.256 334.568C559.952 335.816 561.152 337.232 561.152 339.68C561.152 342.128 558.896 344.384 554.456 344.384ZM571.877 339.104V332H574.637V344H571.877V342.92C571.277 343.76 570.077 344.384 568.421 344.384C565.349 344.384 563.717 342.752 563.717 339.704V332H566.477V339.104C566.477 341.24 567.413 342.176 569.141 342.176C570.869 342.176 571.877 341.168 571.877 339.104ZM580.895 329.84H578.135V327.2H580.895V329.84ZM580.895 344H578.135V332H580.895V344ZM589.553 332V334.04H587.633V340.64C587.633 341.624 587.969 341.96 589.073 341.96H589.553V344.12H588.833C585.713 344.12 584.873 343.28 584.873 341V334.04H583.553V332H584.873V329.36L587.633 328.52V332H589.553ZM603.12 338.576V338.72H594.192C594.336 341.072 595.608 342.224 597.264 342.224C598.824 342.224 599.592 341.456 599.808 340.52H602.808C602.376 342.608 600.6 344.384 597.264 344.384C593.664 344.384 591.288 342.008 591.288 338C591.288 333.968 593.64 331.616 597.264 331.616C600.888 331.616 603.12 333.848 603.12 338.576ZM597.264 333.728C595.584 333.728 594.336 334.88 594.192 336.68H600.192C600.048 334.76 598.944 333.728 597.264 333.728Z" fill="#D4D3A6"/>
<path d="M770.359 328.384C765.559 328.384 762.271 325.096 762.271 319.6C762.271 314.104 765.559 310.816 770.359 310.816C774.607 310.816 776.743 312.952 777.439 315.52H773.959C773.479 314.32 772.495 313.336 770.359 313.336C767.647 313.336 765.511 315.472 765.511 319.6C765.511 323.728 767.647 325.864 770.359 325.864C772.615 325.864 773.911 324.568 774.199 323.08H777.679C777.079 326.032 774.727 328.384 770.359 328.384ZM785.356 328.384C781.588 328.384 779.236 325.912 779.236 322C779.236 318.088 781.588 315.616 785.356 315.616C789.124 315.616 791.476 318.088 791.476 322C791.476 325.912 789.124 328.384 785.356 328.384ZM785.356 326.224C787.3 326.224 788.596 324.808 788.596 322C788.596 319.192 787.3 317.776 785.356 317.776C783.412 317.776 782.116 319.192 782.116 322C782.116 324.808 783.412 326.224 785.356 326.224ZM802.491 316.984V316H805.251V328C805.251 331.24 803.403 333.088 799.875 333.088C796.443 333.088 794.331 331.696 794.019 329.224H797.379C797.571 330.376 798.435 330.976 799.875 330.976C801.699 330.976 802.491 330.088 802.491 327.76V326.824C802.011 327.712 800.835 328.384 799.011 328.384C795.699 328.384 793.323 326.008 793.323 322C793.323 318.088 795.699 315.616 799.011 315.616C800.667 315.616 801.843 316.168 802.491 316.984ZM799.371 326.224C801.315 326.224 802.539 324.808 802.539 322C802.539 319.192 801.315 317.776 799.371 317.776C797.547 317.776 796.203 319.24 796.203 322C796.203 324.856 797.571 326.224 799.371 326.224ZM819.832 324.136V311.2H822.712V328H818.512L811.792 314.848V328H808.912V311.2H813.352L819.832 324.136ZM837.358 322.576V322.72H828.43C828.574 325.072 829.846 326.224 831.502 326.224C833.062 326.224 833.83 325.456 834.046 324.52H837.046C836.614 326.608 834.838 328.384 831.502 328.384C827.902 328.384 825.526 326.008 825.526 322C825.526 317.968 827.878 315.616 831.502 315.616C835.126 315.616 837.358 317.848 837.358 322.576ZM831.502 317.728C829.822 317.728 828.574 318.88 828.43 320.68H834.43C834.286 318.76 833.182 317.728 831.502 317.728ZM845.049 316V318.04H843.129V324.64C843.129 325.624 843.465 325.96 844.569 325.96H845.049V328.12H844.329C841.209 328.12 840.369 327.28 840.369 325V318.04H839.049V316H840.369V313.36L843.129 312.52V316H845.049ZM852.685 328.384C848.701 328.384 846.997 326.656 846.733 324.52H849.853C850.093 325.48 850.837 326.224 852.685 326.224C854.461 326.224 855.109 325.576 855.109 324.928C855.109 324.28 854.749 323.944 853.213 323.512L850.645 322.792C847.957 322.048 846.997 321.04 846.997 319.216C846.997 317.296 848.677 315.616 852.205 315.616C855.733 315.616 857.413 317.296 857.773 319.36H854.893C854.749 318.592 853.933 317.776 852.205 317.776C850.477 317.776 849.877 318.376 849.877 318.976C849.877 319.6 850.285 320.008 851.677 320.392L854.557 321.208C856.909 321.88 857.989 322.96 857.989 324.688C857.989 326.656 856.261 328.384 852.685 328.384Z" fill="#D4D3A6"/>
<path d="M784.47 538.384C779.67 538.384 776.334 535.048 776.334 529.6C776.334 524.152 779.67 520.816 784.47 520.816C789.27 520.816 792.606 524.152 792.606 529.6C792.606 535.048 789.27 538.384 784.47 538.384ZM784.47 535.864C787.23 535.864 789.366 533.728 789.366 529.6C789.366 525.472 787.23 523.336 784.47 523.336C781.71 523.336 779.574 525.472 779.574 529.6C779.574 533.728 781.71 535.864 784.47 535.864ZM808.172 525.616C810.86 525.616 812.492 527.248 812.492 529.96V538H809.732V530.56C809.732 528.616 808.892 527.776 807.548 527.776C806.204 527.776 805.364 528.616 805.364 530.56V538H802.604V530.56C802.604 528.616 801.764 527.776 800.396 527.776C799.028 527.776 798.188 528.616 798.188 530.56V538H795.428V526H798.188V526.912C798.764 526.096 799.772 525.616 801.116 525.616C802.652 525.616 803.828 526.336 804.38 527.344C805.004 526.336 806.3 525.616 808.172 525.616ZM822.274 525.616C825.154 525.616 826.762 527.224 826.762 530.056V538H824.002V530.776C824.002 528.736 823.042 527.776 821.338 527.776C819.634 527.776 818.602 528.808 818.602 530.776V538H815.842V526H818.602V527.176C819.226 526.312 820.522 525.616 822.274 525.616ZM832.875 523.84H830.115V521.2H832.875V523.84ZM832.875 538H830.115V526H832.875V538ZM843.285 532.6H836.085V530.44H843.285V532.6ZM771.997 569.384C768.229 569.384 765.877 566.912 765.877 563C765.877 559.088 768.229 556.616 771.997 556.616C775.333 556.616 777.061 558.344 777.421 560.36H774.541C774.205 559.424 773.437 558.776 771.997 558.776C770.053 558.776 768.757 560.192 768.757 563C768.757 565.808 770.053 567.224 771.997 567.224C773.557 567.224 774.325 566.456 774.541 565.52H777.541C777.109 567.608 775.333 569.384 771.997 569.384ZM786.27 556.616C789.15 556.616 790.71 558.176 790.71 561.056V569H787.95V561.776C787.95 559.664 787.062 558.776 785.43 558.776C783.774 558.776 782.742 559.808 782.742 561.776V569H779.982V552.2H782.742V558.032C783.342 557.216 784.542 556.616 786.27 556.616ZM796.828 554.84H794.068V552.2H796.828V554.84ZM796.828 569H794.068V557H796.828V569ZM813.07 556.616C815.758 556.616 817.39 558.248 817.39 560.96V569H814.63V561.56C814.63 559.616 813.79 558.776 812.446 558.776C811.102 558.776 810.262 559.616 810.262 561.56V569H807.502V561.56C807.502 559.616 806.662 558.776 805.294 558.776C803.926 558.776 803.086 559.616 803.086 561.56V569H800.326V557H803.086V557.912C803.662 557.096 804.67 556.616 806.014 556.616C807.55 556.616 808.726 557.336 809.278 558.344C809.902 557.336 811.198 556.616 813.07 556.616ZM831.756 563.576V563.72H822.828C822.972 566.072 824.244 567.224 825.9 567.224C827.46 567.224 828.228 566.456 828.444 565.52H831.444C831.012 567.608 829.236 569.384 825.9 569.384C822.3 569.384 819.924 567.008 819.924 563C819.924 558.968 822.276 556.616 825.9 556.616C829.524 556.616 831.756 558.848 831.756 563.576ZM825.9 558.728C824.22 558.728 822.972 559.88 822.828 561.68H828.828C828.684 559.76 827.58 558.728 825.9 558.728ZM841.22 556.88H841.46V559.64H841.34C838.364 559.64 837.164 560.84 837.164 563.48V569H834.404V557H837.164V558.944C837.764 557.744 839.18 556.88 841.22 556.88ZM848.467 556.616C851.923 556.616 853.435 558.128 853.435 560.528V569H850.675V567.68C850.099 568.568 848.755 569.384 846.787 569.384C844.099 569.384 842.563 567.8 842.563 565.808C842.563 563.984 843.595 562.88 847.219 562.112L848.683 561.8C850.219 561.464 850.675 560.96 850.675 560.168C850.675 559.376 850.027 558.728 848.467 558.728C846.883 558.728 846.139 559.472 846.043 560.36H843.043C843.235 558.248 844.867 556.616 848.467 556.616ZM847.795 567.272C849.643 567.272 850.675 566.24 850.675 564.776V563.312C850.315 563.48 849.667 563.648 848.875 563.84L847.795 564.104C846.091 564.512 845.611 564.992 845.611 565.808C845.611 566.624 846.259 567.272 847.795 567.272Z" fill="#D4D3A6"/>
<path d="M539.285 538.384C534.485 538.384 531.197 535.096 531.197 529.6C531.197 524.104 534.485 520.816 539.285 520.816C543.533 520.816 545.669 522.952 546.365 525.52H542.885C542.405 524.32 541.421 523.336 539.285 523.336C536.573 523.336 534.437 525.472 534.437 529.6C534.437 533.728 536.573 535.864 539.285 535.864C541.541 535.864 542.837 534.568 543.125 533.08H546.605C546.005 536.032 543.653 538.384 539.285 538.384ZM560.018 532.576V532.72H551.09C551.234 535.072 552.506 536.224 554.162 536.224C555.722 536.224 556.49 535.456 556.706 534.52H559.706C559.274 536.608 557.498 538.384 554.162 538.384C550.562 538.384 548.186 536.008 548.186 532C548.186 527.968 550.538 525.616 554.162 525.616C557.786 525.616 560.018 527.848 560.018 532.576ZM554.162 527.728C552.482 527.728 551.234 528.88 551.09 530.68H557.09C556.946 528.76 555.842 527.728 554.162 527.728ZM569.098 525.616C571.978 525.616 573.586 527.224 573.586 530.056V538H570.826V530.776C570.826 528.736 569.866 527.776 568.162 527.776C566.458 527.776 565.426 528.808 565.426 530.776V538H562.666V526H565.426V527.176C566.05 526.312 567.346 525.616 569.098 525.616ZM581.982 526V528.04H580.062V534.64C580.062 535.624 580.398 535.96 581.502 535.96H581.982V538.12H581.262C578.142 538.12 577.302 537.28 577.302 535V528.04H575.982V526H577.302V523.36L580.062 522.52V526H581.982ZM589.643 525.616C593.099 525.616 594.611 527.128 594.611 529.528V538H591.851V536.68C591.275 537.568 589.931 538.384 587.963 538.384C585.275 538.384 583.739 536.8 583.739 534.808C583.739 532.984 584.771 531.88 588.395 531.112L589.859 530.8C591.395 530.464 591.851 529.96 591.851 529.168C591.851 528.376 591.203 527.728 589.643 527.728C588.059 527.728 587.315 528.472 587.219 529.36H584.219C584.411 527.248 586.043 525.616 589.643 525.616ZM588.971 536.272C590.819 536.272 591.851 535.24 591.851 533.776V532.312C591.491 532.48 590.843 532.648 590.051 532.84L588.971 533.104C587.267 533.512 586.787 533.992 586.787 534.808C586.787 535.624 587.435 536.272 588.971 536.272ZM605.955 533.104V526H608.715V538H605.955V536.92C605.355 537.76 604.155 538.384 602.499 538.384C599.427 538.384 597.795 536.752 597.795 533.704V526H600.555V533.104C600.555 535.24 601.491 536.176 603.219 536.176C604.947 536.176 605.955 535.168 605.955 533.104ZM619.029 525.88H619.269V528.64H619.149C616.173 528.64 614.973 529.84 614.973 532.48V538H612.213V526H614.973V527.944C615.573 526.744 616.989 525.88 619.029 525.88ZM541.753 569.384C537.001 569.384 534.505 566.888 534.241 564.08H537.721C537.985 565.616 539.353 566.984 541.753 566.984C544.153 566.984 545.209 565.928 545.209 564.8C545.209 563.672 544.657 563.048 542.545 562.328L539.233 561.2C535.825 560.048 534.457 558.704 534.457 556.4C534.457 554 536.641 551.816 541.081 551.816C545.641 551.816 547.633 553.856 548.209 556.52H544.849C544.489 555.32 543.457 554.216 541.081 554.216C538.705 554.216 537.697 555.224 537.697 556.232C537.697 557.168 538.273 557.768 540.241 558.44L543.553 559.568C547.249 560.816 548.449 562.232 548.449 564.68C548.449 567.128 546.193 569.384 541.753 569.384ZM556.201 565.688L559.825 557H562.585L555.553 573.8H552.793L554.809 569.096L549.481 557H552.601L556.201 565.688ZM574.115 559.04L567.227 566.84H574.403V569H563.699V566.84L570.443 559.16H564.035V557H574.115V559.04ZM582.146 565.688L585.77 557H588.53L581.498 573.8H578.738L580.754 569.096L575.426 557H578.546L582.146 565.688ZM598.651 557.984V557H601.411V569C601.411 572.24 599.563 574.088 596.035 574.088C592.603 574.088 590.491 572.696 590.179 570.224H593.539C593.731 571.376 594.595 571.976 596.035 571.976C597.859 571.976 598.651 571.088 598.651 568.76V567.824C598.171 568.712 596.995 569.384 595.171 569.384C591.859 569.384 589.483 567.008 589.483 563C589.483 559.088 591.859 556.616 595.171 556.616C596.827 556.616 598.003 557.168 598.651 557.984ZM595.531 567.224C597.475 567.224 598.699 565.808 598.699 563C598.699 560.192 597.475 558.776 595.531 558.776C593.707 558.776 592.363 560.24 592.363 563C592.363 565.856 593.731 567.224 595.531 567.224ZM610.06 565.688L613.684 557H616.444L609.412 573.8H606.652L608.668 569.096L603.34 557H606.46L610.06 565.688Z" fill="#D4D3A6"/>
<path d="M541.998 758.752L545.886 746.2H548.886L543.462 763H540.342L536.718 750.568L533.262 763H530.142L524.454 746.2H527.694L531.702 758.776L535.11 746.2H538.35L541.998 758.752ZM560.885 757.576V757.72H551.957C552.101 760.072 553.373 761.224 555.029 761.224C556.589 761.224 557.357 760.456 557.573 759.52H560.573C560.141 761.608 558.365 763.384 555.029 763.384C551.429 763.384 549.053 761.008 549.053 757C549.053 752.968 551.405 750.616 555.029 750.616C558.653 750.616 560.885 752.848 560.885 757.576ZM555.029 752.728C553.349 752.728 552.101 753.88 551.957 755.68H557.957C557.813 753.76 556.709 752.728 555.029 752.728ZM568.576 751V753.04H566.656V759.64C566.656 760.624 566.992 760.96 568.096 760.96H568.576V763.12H567.856C564.736 763.12 563.896 762.28 563.896 760V753.04H562.576V751H563.896V748.36L566.656 747.52V751H568.576ZM584.133 759.856L586.941 751H589.701L585.501 763H582.477L579.885 754.768L577.293 763H574.269L569.805 751H572.805L575.853 759.856L578.541 751H581.421L584.133 759.856ZM596.627 750.616C600.083 750.616 601.595 752.128 601.595 754.528V763H598.835V761.68C598.259 762.568 596.915 763.384 594.947 763.384C592.259 763.384 590.723 761.8 590.723 759.808C590.723 757.984 591.755 756.88 595.379 756.112L596.843 755.8C598.379 755.464 598.835 754.96 598.835 754.168C598.835 753.376 598.187 752.728 596.627 752.728C595.043 752.728 594.299 753.472 594.203 754.36H591.203C591.395 752.248 593.027 750.616 596.627 750.616ZM595.955 761.272C597.803 761.272 598.835 760.24 598.835 758.776V757.312C598.475 757.48 597.827 757.648 597.035 757.84L595.955 758.104C594.251 758.512 593.771 758.992 593.771 759.808C593.771 760.624 594.419 761.272 595.955 761.272ZM611.763 750.88H612.003V753.64H611.883C608.907 753.64 607.707 754.84 607.707 757.48V763H604.947V751H607.707V752.944C608.307 751.744 609.723 750.88 611.763 750.88ZM625.01 757.576V757.72H616.082C616.226 760.072 617.498 761.224 619.154 761.224C620.714 761.224 621.482 760.456 621.698 759.52H624.698C624.266 761.608 622.49 763.384 619.154 763.384C615.554 763.384 613.178 761.008 613.178 757C613.178 752.968 615.53 750.616 619.154 750.616C622.778 750.616 625.01 752.848 625.01 757.576ZM619.154 752.728C617.474 752.728 616.226 753.88 616.082 755.68H622.082C621.938 753.76 620.834 752.728 619.154 752.728ZM503.555 794.384C498.755 794.384 495.467 791.096 495.467 785.6C495.467 780.104 498.755 776.816 503.555 776.816C507.803 776.816 509.939 778.952 510.635 781.52H507.155C506.675 780.32 505.691 779.336 503.555 779.336C500.843 779.336 498.707 781.472 498.707 785.6C498.707 789.728 500.843 791.864 503.555 791.864C505.811 791.864 507.107 790.568 507.395 789.08H510.875C510.275 792.032 507.923 794.384 503.555 794.384ZM519.56 781.616C522.44 781.616 524 783.176 524 786.056V794H521.24V786.776C521.24 784.664 520.352 783.776 518.72 783.776C517.064 783.776 516.032 784.808 516.032 786.776V794H513.272V777.2H516.032V783.032C516.632 782.216 517.832 781.616 519.56 781.616ZM532.637 794.384C528.869 794.384 526.517 791.912 526.517 788C526.517 784.088 528.869 781.616 532.637 781.616C536.405 781.616 538.757 784.088 538.757 788C538.757 791.912 536.405 794.384 532.637 794.384ZM532.637 792.224C534.581 792.224 535.877 790.808 535.877 788C535.877 785.192 534.581 783.776 532.637 783.776C530.693 783.776 529.397 785.192 529.397 788C529.397 790.808 530.693 792.224 532.637 792.224ZM548.236 781.88H548.476V784.64H548.356C545.38 784.64 544.18 785.84 544.18 788.48V794H541.42V782H544.18V783.944C544.78 782.744 546.196 781.88 548.236 781.88ZM561.483 788.576V788.72H552.555C552.699 791.072 553.971 792.224 555.627 792.224C557.187 792.224 557.955 791.456 558.171 790.52H561.171C560.739 792.608 558.963 794.384 555.627 794.384C552.027 794.384 549.651 792.008 549.651 788C549.651 783.968 552.003 781.616 555.627 781.616C559.251 781.616 561.483 783.848 561.483 788.576ZM555.627 783.728C553.947 783.728 552.699 784.88 552.555 786.68H558.555C558.411 784.76 557.307 783.728 555.627 783.728ZM569.411 794.384C565.643 794.384 563.291 791.912 563.291 788C563.291 784.088 565.643 781.616 569.411 781.616C573.179 781.616 575.531 784.088 575.531 788C575.531 791.912 573.179 794.384 569.411 794.384ZM569.411 792.224C571.355 792.224 572.651 790.808 572.651 788C572.651 785.192 571.355 783.776 569.411 783.776C567.467 783.776 566.171 785.192 566.171 788C566.171 790.808 567.467 792.224 569.411 792.224ZM586.545 782.984V782H589.305V794C589.305 797.24 587.457 799.088 583.929 799.088C580.497 799.088 578.385 797.696 578.073 795.224H581.433C581.625 796.376 582.489 796.976 583.929 796.976C585.753 796.976 586.545 796.088 586.545 793.76V792.824C586.065 793.712 584.889 794.384 583.065 794.384C579.753 794.384 577.377 792.008 577.377 788C577.377 784.088 579.753 781.616 583.065 781.616C584.721 781.616 585.897 782.168 586.545 782.984ZM583.425 792.224C585.369 792.224 586.593 790.808 586.593 788C586.593 785.192 585.369 783.776 583.425 783.776C581.601 783.776 580.257 785.24 580.257 788C580.257 790.856 581.625 792.224 583.425 792.224ZM599.611 781.88H599.851V784.64H599.731C596.755 784.64 595.555 785.84 595.555 788.48V794H592.795V782H595.555V783.944C596.155 782.744 597.571 781.88 599.611 781.88ZM606.858 781.616C610.314 781.616 611.826 783.128 611.826 785.528V794H609.066V792.68C608.49 793.568 607.146 794.384 605.178 794.384C602.49 794.384 600.954 792.8 600.954 790.808C600.954 788.984 601.986 787.88 605.61 787.112L607.074 786.8C608.61 786.464 609.066 785.96 609.066 785.168C609.066 784.376 608.418 783.728 606.858 783.728C605.274 783.728 604.53 784.472 604.434 785.36H601.434C601.626 783.248 603.258 781.616 606.858 781.616ZM606.186 792.272C608.034 792.272 609.066 791.24 609.066 789.776V788.312C608.706 788.48 608.058 788.648 607.266 788.84L606.186 789.104C604.482 789.512 604.002 789.992 604.002 790.808C604.002 791.624 604.65 792.272 606.186 792.272ZM621.49 781.616C624.874 781.616 627.25 784.088 627.25 788C627.25 791.96 624.922 794.384 621.49 794.384C619.81 794.384 618.61 793.832 617.938 792.992V798.8H615.178V782H617.938V783.296C618.442 782.36 619.69 781.616 621.49 781.616ZM621.13 792.224C623.074 792.224 624.37 790.808 624.37 788C624.37 785.192 623.074 783.776 621.13 783.776C619.186 783.776 617.89 785.192 617.89 788C617.89 790.808 619.186 792.224 621.13 792.224ZM636.208 781.616C639.088 781.616 640.648 783.176 640.648 786.056V794H637.888V786.776C637.888 784.664 637 783.776 635.368 783.776C633.712 783.776 632.68 784.808 632.68 786.776V794H629.92V777.2H632.68V783.032C633.28 782.216 634.48 781.616 636.208 781.616ZM648.955 790.688L652.579 782H655.339L648.307 798.8H645.547L647.563 794.096L642.235 782H645.355L648.955 790.688Z" fill="#D4D3A6"/>
</svg>
