<svg width="94" height="94" viewBox="0 0 94 94" fill="none" xmlns="http://www.w3.org/2000/svg">
<path d="M37.4765 64.7617C35.3286 66.9096 31.6879 66.7513 29.3448 64.4082C27.0016 62.0651 26.8433 58.4244 28.9912 56.2765C31.1391 54.1286 34.7798 54.2869 37.1229 56.63C39.4661 58.9732 39.6244 62.6139 37.4765 64.7617Z" fill="#9AFE27"/>
<path d="M42.7798 76.429L17.324 50.9732L16.6168 51.6803L19.0917 65.4689L1.41405 68.2973L1.0605 69.3579L18.3846 75.3684L24.395 92.6925L25.4557 92.3389L27.9306 74.3077L42.0727 77.1361L42.7798 76.429Z" fill="#9AFE27"/>
<ellipse cx="74.4458" cy="18.3849" rx="6" ry="5.5" transform="rotate(-135 74.4458 18.3849)" fill="#9AFE27"/>
<ellipse cx="48.9897" cy="43.8407" rx="6" ry="5.5" transform="rotate(-135 48.9897 43.8407)" fill="#9AFE27"/>
<circle cx="62.0713" cy="31.4664" r="6" transform="rotate(-135 62.0713 31.4664)" fill="#9AFE27"/>
<path d="M44.3936 19.4455V20.8597L49.3434 25.8094L56.4144 18.7384L51.4647 13.7886H50.0505L44.3936 19.4455Z" fill="#9AFE27"/>
<path d="M79.7489 43.4871V42.0729L74.7992 37.1232L67.7281 44.1942L72.6779 49.144H74.0921L79.7489 43.4871Z" fill="#9AFE27"/>
<path d="M44.3936 30.7592V32.1734L61.3642 49.144H62.7784L79.749 32.1734V30.7592L62.7784 13.7886H61.3642L44.3936 30.7592Z" stroke="#9AFE27" stroke-width="2"/>
</svg>
