<svg width="134" height="115" viewBox="0 0 134 115" fill="none" xmlns="http://www.w3.org/2000/svg">
<path d="M30.6385 36.2933C28.1503 34.551 27.674 30.9382 29.5746 28.2237C31.4753 25.5093 35.0332 24.7212 37.5214 26.4635C40.0096 28.2058 40.486 31.8186 38.5853 34.5331C36.6846 37.2475 33.1267 38.0356 30.6385 36.2933Z" fill="#9AFE27"/>
<path d="M20.0694 43.542L40.7181 14.0526L39.899 13.479L26.7496 18.3106L20.8945 1.39267L19.7886 1.22867L16.8778 19.3333L0.860534 28.2607L1.3929 29.2438L19.5799 28.55L19.2502 42.9685L20.0694 43.542Z" fill="#9AFE27"/>
<path d="M73 85.5C73 88.5376 70.3137 91 67 91C63.6863 91 61 88.5376 61 85.5C61 82.4624 63.6863 80 67 80C70.3137 80 73 82.4624 73 85.5Z" fill="#9AFE27"/>
<path d="M85 90H49V91L60.5 99L50 113.5L50.5 114.5L67 106.5L83.5 114.5L84 113.5L73 99L85 91V90Z" fill="#9AFE27"/>
<path d="M96.3884 26.4635C98.8767 24.7212 102.435 25.5093 104.335 28.2238C106.236 30.9382 105.76 34.5511 103.271 36.2933C100.783 38.0356 97.2252 37.2475 95.3245 34.5331C93.4239 31.8187 93.9002 28.2058 96.3884 26.4635Z" fill="#9AFE27"/>
<path d="M93.1917 14.0526L113.84 43.5421L114.66 42.9685L114.617 28.9596L132.517 29.2439L133.049 28.2607L117.032 19.3333L114.121 1.2287L113.015 1.3927L107.447 18.7202L94.0108 13.479L93.1917 14.0526Z" fill="#9AFE27"/>
<ellipse cx="84.5" cy="49.5" rx="6" ry="5.5" transform="rotate(-90 84.5 49.5)" fill="#9AFE27"/>
<ellipse cx="48.5" cy="49.5" rx="6" ry="5.5" transform="rotate(-90 48.5 49.5)" fill="#9AFE27"/>
<circle cx="66.5" cy="50" r="6" transform="rotate(-90 66.5 50)" fill="#9AFE27"/>
<path d="M62.5 29L61.5 30V37H71.5V30L70.5 29H62.5Z" fill="#9AFE27"/>
<path d="M70.5 71L71.5 70V63H61.5V70L62.5 71H70.5Z" fill="#9AFE27"/>
<path d="M54.5 37L53.5 38V62L54.5 63H78.5L79.5 62V38L78.5 37H54.5Z" stroke="#9AFE27" stroke-width="2"/>
</svg>
