<svg width="94" height="94" viewBox="0 0 94 94" fill="none" xmlns="http://www.w3.org/2000/svg">
<path d="M37.4765 64.7622C35.3286 66.9101 31.6879 66.7518 29.3448 64.4087C27.0016 62.0655 26.8433 58.4248 28.9912 56.277C31.1391 54.1291 34.7798 54.2874 37.1229 56.6305C39.4661 58.9737 39.6244 62.6144 37.4765 64.7622Z" fill="#D4D3A6"/>
<path d="M42.7798 76.4295L17.324 50.9737L16.6168 51.6808L19.0917 65.4693L1.41405 68.2978L1.0605 69.3584L18.3846 75.3688L24.395 92.693L25.4557 92.3394L27.9306 74.3082L42.0727 77.1366L42.7798 76.4295Z" fill="#D4D3A6"/>
<ellipse cx="74.4458" cy="18.3854" rx="6" ry="5.5" transform="rotate(-135 74.4458 18.3854)" fill="#D4D3A6"/>
<ellipse cx="48.9897" cy="43.8412" rx="6" ry="5.5" transform="rotate(-135 48.9897 43.8412)" fill="#D4D3A6"/>
<circle cx="62.0713" cy="31.4669" r="6" transform="rotate(-135 62.0713 31.4669)" fill="#D4D3A6"/>
<path d="M44.3936 19.446V20.8602L49.3434 25.8099L56.4144 18.7389L51.4647 13.7891H50.0505L44.3936 19.446Z" fill="#D4D3A6"/>
<path d="M79.7489 43.4876V42.0734L74.7992 37.1237L67.7281 44.1947L72.6779 49.1445H74.0921L79.7489 43.4876Z" fill="#D4D3A6"/>
<path d="M44.3936 30.7597V32.1739L61.3642 49.1445H62.7784L79.749 32.1739V30.7597L62.7784 13.7891H61.3642L44.3936 30.7597Z" stroke="#D4D3A6" stroke-width="2"/>
</svg>
