<svg width="99" height="80" viewBox="0 0 99 80" fill="none" xmlns="http://www.w3.org/2000/svg">
<path d="M30.6383 36.294C28.15 34.5518 27.6737 30.9389 29.5744 28.2245C31.475 25.51 35.0329 24.7219 37.5212 26.4642C40.0094 28.2065 40.4857 31.8194 38.585 34.5338C36.6844 37.2482 33.1265 38.0363 30.6383 36.294Z" fill="#D4D3A6"/>
<path d="M20.0692 43.5428L40.7179 14.0533L39.8988 13.4797L26.7494 18.3114L20.8943 1.3934L19.7883 1.2294L16.8775 19.334L0.86029 28.2614L1.39265 29.2446L19.5797 28.5508L19.25 42.9692L20.0692 43.5428Z" fill="#D4D3A6"/>
<path d="M54.9998 50.501C54.9998 53.5385 52.3135 56.001 48.9998 56.001C45.686 56.001 42.9998 53.5385 42.9998 50.501C42.9998 47.4634 45.686 45.001 48.9998 45.001C52.3135 45.001 54.9998 47.4634 54.9998 50.501Z" fill="#D4D3A6"/>
<path d="M66.9998 55.001H30.9998V56.001L42.4998 64.001L31.9998 78.501L32.4998 79.501L48.9998 71.501L65.4998 79.501L65.9998 78.501L54.9998 64.001L66.9998 56.001V55.001Z" fill="#D4D3A6"/>
<path d="M61.3882 26.464C63.8764 24.7217 67.4343 25.5098 69.335 28.2242C71.2356 30.9387 70.7593 34.5515 68.2711 36.2938C65.7829 38.0361 62.225 37.248 60.3243 34.5336C58.4236 31.8192 58.9 28.2063 61.3882 26.464Z" fill="#D4D3A6"/>
<path d="M58.1914 14.0531L78.8402 43.5426L79.6594 42.969L79.6164 28.9601L97.5167 29.2444L98.0491 28.2612L82.0318 19.3338L79.121 1.22919L78.0151 1.39319L72.4467 18.7207L59.0106 13.4795L58.1914 14.0531Z" fill="#D4D3A6"/>
</svg>
