<svg width="134" height="115" viewBox="0 0 134 115" fill="none" xmlns="http://www.w3.org/2000/svg">
<path d="M30.6385 36.294C28.1503 34.5518 27.674 30.9389 29.5746 28.2245C31.4753 25.51 35.0332 24.7219 37.5214 26.4642C40.0096 28.2065 40.486 31.8194 38.5853 34.5338C36.6846 37.2482 33.1267 38.0363 30.6385 36.294Z" fill="#D4D3A6"/>
<path d="M20.0694 43.5428L40.7181 14.0533L39.899 13.4797L26.7496 18.3114L20.8945 1.3934L19.7886 1.2294L16.8778 19.334L0.860534 28.2614L1.3929 29.2446L19.5799 28.5508L19.2502 42.9692L20.0694 43.5428Z" fill="#D4D3A6"/>
<path d="M73.0005 85.501C73.0005 88.5385 70.3142 91.001 67.0005 91.001C63.6868 91.001 61.0005 88.5385 61.0005 85.501C61.0005 82.4634 63.6868 80.001 67.0005 80.001C70.3142 80.001 73.0005 82.4634 73.0005 85.501Z" fill="#D4D3A6"/>
<path d="M85.0005 90.001H49.0005V91.001L60.5005 99.001L50.0005 113.501L50.5005 114.501L67.0005 106.501L83.5005 114.501L84.0005 113.501L73.0005 99.001L85.0005 91.001V90.001Z" fill="#D4D3A6"/>
<path d="M96.3884 26.464C98.8767 24.7217 102.435 25.5098 104.335 28.2242C106.236 30.9387 105.76 34.5515 103.271 36.2938C100.783 38.0361 97.2252 37.248 95.3245 34.5336C93.4239 31.8192 93.9002 28.2063 96.3884 26.464Z" fill="#D4D3A6"/>
<path d="M93.1917 14.0531L113.84 43.5426L114.66 42.969L114.617 28.9601L132.517 29.2444L133.049 28.2612L117.032 19.3338L114.121 1.22919L113.015 1.39319L107.447 18.7207L94.0108 13.4795L93.1917 14.0531Z" fill="#D4D3A6"/>
<ellipse cx="84.5005" cy="49.501" rx="6" ry="5.5" transform="rotate(-90 84.5005 49.501)" fill="#D4D3A6"/>
<ellipse cx="48.5005" cy="49.501" rx="6" ry="5.5" transform="rotate(-90 48.5005 49.501)" fill="#D4D3A6"/>
<circle cx="66.5005" cy="50.001" r="6" transform="rotate(-90 66.5005 50.001)" fill="#D4D3A6"/>
<path d="M62.5005 29.001L61.5005 30.001V37.001H71.5005V30.001L70.5005 29.001H62.5005Z" fill="#D4D3A6"/>
<path d="M70.5005 71.001L71.5005 70.001V63.001H61.5005V70.001L62.5005 71.001H70.5005Z" fill="#D4D3A6"/>
<path d="M54.5005 37.001L53.5005 38.001V62.001L54.5005 63.001H78.5005L79.5005 62.001V38.001L78.5005 37.001H54.5005Z" stroke="#D4D3A6" stroke-width="2"/>
</svg>
