<svg width="104" height="114" viewBox="0 0 104 114" fill="none" xmlns="http://www.w3.org/2000/svg">
<path d="M29 63C25.9624 63 23.5 60.3137 23.5 57C23.5 53.6863 25.9624 51 29 51C32.0376 51 34.5 53.6863 34.5 57C34.5 60.3137 32.0376 63 29 63Z" fill="#D4D3A6"/>
<path d="M24.5 75L24.5 39H23.5L15.5 50.5L1 40L0 40.5L8 57L0 73.5L1 74L15.5 63L23.5 75H24.5Z" fill="#D4D3A6"/>
<path d="M74.5 51C77.5376 51 80 53.6863 80 57C80 60.3137 77.5376 63 74.5 63C71.4624 63 69 60.3137 69 57C69 53.6863 71.4624 51 74.5 51Z" fill="#D4D3A6"/>
<path d="M79 39V75H80L88 63.5L102.5 74L103.5 73.5L95.5 57L103.5 40.5L102.5 40L88 51L80 39H79Z" fill="#D4D3A6"/>
<ellipse cx="51.5" cy="5.5" rx="6" ry="5.5" transform="rotate(-180 51.5 5.5)" fill="#D4D3A6"/>
<ellipse cx="51.5" cy="41.5" rx="6" ry="5.5" transform="rotate(-180 51.5 41.5)" fill="#D4D3A6"/>
<circle cx="52" cy="23.5" r="6" transform="rotate(-180 52 23.5)" fill="#D4D3A6"/>
<path d="M31 27.5L32 28.5H39V18.5H32L31 19.5V27.5Z" fill="#D4D3A6"/>
<path d="M73 19.5L72 18.5H65V28.5H72L73 27.5V19.5Z" fill="#D4D3A6"/>
<path d="M39 35.5L40 36.5H64L65 35.5V11.5L64 10.5H40L39 11.5V35.5Z" stroke="#D4D3A6" stroke-width="2"/>
<ellipse cx="51.5" cy="72.5" rx="6" ry="5.5" transform="rotate(-180 51.5 72.5)" fill="#D4D3A6"/>
<ellipse cx="51.5" cy="108.5" rx="6" ry="5.5" transform="rotate(-180 51.5 108.5)" fill="#D4D3A6"/>
<circle cx="52" cy="90.5" r="6" transform="rotate(-180 52 90.5)" fill="#D4D3A6"/>
<path d="M31 94.5L32 95.5H39V85.5H32L31 86.5V94.5Z" fill="#D4D3A6"/>
<path d="M73 86.5L72 85.5H65V95.5H72L73 94.5V86.5Z" fill="#D4D3A6"/>
<path d="M39 102.5L40 103.5H64L65 102.5V78.5L64 77.5H40L39 78.5V102.5Z" stroke="#D4D3A6" stroke-width="2"/>
</svg>
