<?xml version="1.0" encoding="utf-8"?>
<!-- Generator: Adobe Illustrator 25.3.1, SVG Export Plug-In . SVG Version: 6.00 Build 0)  -->
<svg version="1.1" id="Layer_1" xmlns="http://www.w3.org/2000/svg" xmlns:xlink="http://www.w3.org/1999/xlink" x="0px" y="0px"
	 viewBox="0 0 1645 317" style="enable-background:new 0 0 1645 317;" xml:space="preserve">
<style type="text/css">
	.st0{fill:#9AFE27;}
</style>
<path class="st0" d="M58.8,252.1C29.1,252.1,0,232.4,0,198.8c0-38.5,29.8-51.8,66.6-56.7l24.5-3.2c14-1.8,18.9-7,18.9-15.4
	c0-11.9-9.8-22.4-28-22.4c-20,0-32.6,11.2-34.3,29.1H3.5c2.8-35.7,31.9-61,76-61c52.2,0,73.2,28,73.2,76v100.5h-39.6v-7
	c0-5.6,0.7-10.9,1.8-16.5C105.8,239.1,88.3,252.1,58.8,252.1z M43.4,197.1c0,15.1,11.9,23.5,27,23.5c22.8,0,41-16.8,41-41V161
	c-3.9,3.5-9.8,5.3-20.3,7.4l-14,2.8C57.1,175,43.4,181.7,43.4,197.1z"/>
<path class="st0" d="M180.2,245.8V74.8h42.7v7.7c0,4.9-0.4,10.2-1.4,16.8c9.5-17.2,25.6-30.1,52.5-30.1c37.8,0,60.2,26.6,60.2,68.7
	v107.9h-42.7V144.2c0-25.2-12.3-41-32.2-41c-21,0-36.4,18.6-36.4,42.4v100.2H180.2z"/>
<path class="st0" d="M437.8,248.9c-36.4,0-55.7-18.2-55.7-56.4v-83.7h-38.9v-34h38.9V13.2h42.7v61.7h41.7v34h-41.7v77.4
	c0,17.9,7,28.4,25.2,28.4c4.2,0,8.8-0.4,13-1.1v32.2C458.8,247.2,448.6,248.9,437.8,248.9z"/>
<path class="st0" d="M479.4,245.8V74.8h42.7v170.9H479.4z"/>
<path class="st0" d="M551.1,245.8V0.6h42.7v141.9c3.5-4.9,8.4-10.9,12.3-15.1l49-52.5l54.3,0l-69.7,72.9l76,98.1H661l-49.7-69
	l-17.5,17.9v51.1H551.1z"/>
<path class="st0" d="M750.7,316.5l27.3-72.3L711.1,74.8h48l34.7,106c2.1,6,7.7,22.6,7.7,22.6l5.8-21.2l33.9-107.4l44.6,0
	l-89.3,241.8H750.7z"/>
<path class="st0" d="M982.6,248.9c-36.4,0-55.7-18.2-55.7-56.4v-83.7H888v-34h38.9V13.1h42.7v61.7h41.8v34h-41.8v77.4
	c0,17.9,7,28.4,25.2,28.4c4.2,0,8.3-0.4,12.6-1.2v32.4C1003.2,247.1,993.5,248.9,982.6,248.9z"/>
<path class="st0" d="M1025.3,245.8V0.6h42.7v82c0,4.9-0.3,10.2-1.4,16.8c9.5-17.2,25.6-30.1,52.5-30.1c37.8,0,60.2,26.6,60.2,68.7
	v107.9h-42.7V144.2c0-25.2-12.3-41-32.2-41c-21,0-36.4,18.6-36.4,42.4v100.2H1025.3z"/>
<path class="st0" d="M1284.6,252.1c-51.1,0-87.2-32.9-87.2-92.1c0-53.9,36.1-90.7,85.8-90.7c52.2,0,82.3,36.4,82.3,92.1v9.5h-124.4
	c0.3,27,17.5,47.6,43.4,47.6c18.6,0,33.6-10.5,36.4-28.4h43.4C1360.9,225.1,1330.8,252.1,1284.6,252.1z M1240.8,140h80.9
	c-0.7-23.1-15.8-38.9-38.9-38.9S1243.2,117.6,1240.8,140z"/>
<path class="st0" d="M1386.6,245.8V74.8h42.7v13c0,6.3-0.3,11.6-1.4,17.9c9.1-19.3,24.5-36.4,50.1-36.4c3.5,0,6.3,0.4,9.1,1.1v41.3
	c-2.8-0.7-6.7-1.4-12.3-1.4c-26.3,0-45.5,13.3-45.5,50.8v84.8H1386.6z"/>
<path class="st0" d="M1550.2,252.1c-29.8,0-58.8-19.6-58.8-53.2c0-38.5,29.8-51.8,66.6-56.7l24.5-3.2c14-1.8,18.9-7,18.9-15.4
	c0-11.9-9.8-22.4-28-22.4c-20,0-32.6,11.2-34.3,29.1h-44.1c2.8-35.7,31.9-61,76-61c52.2,0,73.2,28,73.2,76v100.5h-39.6v-7
	c0-5.6,0.7-10.9,1.8-16.5C1597.2,239.1,1579.7,252.1,1550.2,252.1z M1534.8,197.1c0,15.1,11.9,23.5,27,23.5c22.8,0,41-16.8,41-41
	V161c-3.9,3.5-9.8,5.3-20.3,7.4l-14,2.8C1548.5,175,1534.8,181.7,1534.8,197.1z"/>
</svg>
