<svg width="683" height="109" viewBox="0 0 683 109" fill="none" xmlns="http://www.w3.org/2000/svg">
<path d="M206.758 84.8548H219.257C222.741 84.8548 225.566 87.6791 225.566 91.1631V101.649C225.566 105.133 222.741 107.957 219.257 107.957H206.758C203.274 107.957 200.449 105.133 200.449 101.649V91.1631C200.449 87.6791 203.274 84.8548 206.758 84.8548Z" fill="#747C74" stroke="#747C74" stroke-width="0.0846746"/>
<mask id="path-2-inside-1_360_39" fill="white">
<path d="M288.613 108.003H263.349L227.489 42.1804C226.566 40.4877 227.792 38.4249 229.719 38.4249H249.199C250.129 38.4249 250.984 38.9332 251.429 39.7499L288.613 108.003Z"/>
<path d="M245.394 62.9702H231.174C228.142 62.9702 225.684 66.2379 225.684 70.2687V78.859C225.684 82.8898 228.142 86.1575 231.174 86.1575H245.394C248.426 86.1575 250.884 82.8898 250.884 78.859V70.2687C250.884 66.2379 248.426 62.9702 245.394 62.9702Z"/>
</mask>
<path d="M288.613 108.003H263.349L227.489 42.1804C226.566 40.4877 227.792 38.4249 229.719 38.4249H249.199C250.129 38.4249 250.984 38.9332 251.429 39.7499L288.613 108.003Z" fill="#747C74"/>
<path d="M245.394 62.9702H231.174C228.142 62.9702 225.684 66.2379 225.684 70.2687V78.859C225.684 82.8898 228.142 86.1575 231.174 86.1575H245.394C248.426 86.1575 250.884 82.8898 250.884 78.859V70.2687C250.884 66.2379 248.426 62.9702 245.394 62.9702Z" fill="#747C74"/>
<path d="M288.613 108.003V108.087H288.756L288.688 107.962L288.613 108.003ZM263.349 108.003L263.274 108.043L263.298 108.087H263.349V108.003ZM251.429 39.7498L251.355 39.7903L251.429 39.7498ZM227.489 42.1803L227.414 42.2208L227.489 42.1803ZM288.613 107.918H263.349V108.087H288.613V107.918ZM263.423 107.962L227.563 42.1398L227.414 42.2208L263.274 108.043L263.423 107.962ZM229.719 38.5095H249.199V38.3401H229.719V38.5095ZM251.355 39.7903L288.539 108.043L288.688 107.962L251.504 39.7093L251.355 39.7903ZM231.174 63.0548H245.394V62.8854H231.174V63.0548ZM250.8 70.2686V78.8589H250.969V70.2686H250.8ZM245.394 86.0727H231.174V86.242H245.394V86.0727ZM225.768 78.8589V70.2686H225.599V78.8589H225.768ZM231.174 86.0727C229.69 86.0727 228.341 85.2735 227.359 83.9688C226.378 82.664 225.768 80.8577 225.768 78.8589H225.599C225.599 80.8909 226.218 82.7338 227.224 84.0706C228.23 85.4074 229.625 86.242 231.174 86.242V86.0727ZM250.8 78.8589C250.8 80.8577 250.19 82.664 249.209 83.9688C248.227 85.2735 246.878 86.0727 245.394 86.0727V86.242C246.943 86.242 248.338 85.4074 249.344 84.0706C250.35 82.7338 250.969 80.8909 250.969 78.8589H250.8ZM245.394 63.0548C246.878 63.0548 248.227 63.854 249.209 65.1587C250.19 66.4634 250.8 68.2698 250.8 70.2686H250.969C250.969 68.2365 250.35 66.3937 249.344 65.0569C248.338 63.7201 246.943 62.8854 245.394 62.8854V63.0548ZM231.174 62.8854C229.625 62.8854 228.23 63.7201 227.224 65.0569C226.218 66.3937 225.599 68.2366 225.599 70.2686H225.768C225.768 68.2698 226.378 66.4634 227.359 65.1587C228.341 63.854 229.69 63.0548 231.174 63.0548V62.8854ZM249.199 38.5095C250.098 38.5095 250.925 39.0008 251.355 39.7903L251.504 39.7093C251.044 38.8653 250.16 38.3401 249.199 38.3401V38.5095ZM227.563 42.1398C226.672 40.5035 227.856 38.5095 229.719 38.5095V38.3401C227.727 38.3401 226.461 40.4717 227.414 42.2208L227.563 42.1398Z" fill="#747C74" mask="url(#path-2-inside-1_360_39)"/>
<path d="M50.4414 100.762V38.4642H74.3328C75.0109 38.4642 75.5606 39.0139 75.5606 39.692V106.73C75.5606 107.408 75.0109 107.958 74.3328 107.958H38.5568C38.1067 107.958 37.6928 107.711 37.4779 107.316L0.0711838 38.4642H25.1742L47.8949 101.209C48.3953 102.591 50.4414 102.232 50.4414 100.762Z" fill="#747C74" stroke="#747C74" stroke-width="0.0846746"/>
<path d="M155.966 100.762V38.4642H132.074C131.396 38.4642 130.846 39.0139 130.846 39.692V106.73C130.846 107.408 131.396 107.958 132.074 107.958H167.85C168.3 107.958 168.714 107.711 168.929 107.316L206.336 38.4642H181.233L158.512 101.209C158.012 102.591 155.966 102.232 155.966 100.762Z" fill="#747C74" stroke="#747C74" stroke-width="0.0846746"/>
<path d="M115.762 72.6845V72.6848V74.4685V74.4686L115.762 74.4762V74.4763V95.123V95.1231L115.762 95.1307V95.1309V106.727C115.762 107.405 115.212 107.955 114.534 107.955H91.8731C91.1951 107.955 90.6454 107.405 90.6454 106.727V57.4695L90.6454 57.462V57.4618V39.692C90.6454 39.0139 91.1951 38.4642 91.8732 38.4642H114.534C115.212 38.4642 115.762 39.0139 115.762 39.692V72.6771L115.762 72.6845Z" fill="#747C74" stroke="#747C74" stroke-width="0.0846746"/>
<path d="M96.9536 0.0423373H109.453C112.937 0.0423373 115.762 2.86664 115.762 6.35059V16.8366C115.762 20.3206 112.937 23.1449 109.453 23.1449H96.9536C93.4697 23.1449 90.6454 20.3206 90.6454 16.8366V6.3506C90.6454 2.86664 93.4697 0.0423373 96.9536 0.0423373Z" fill="#747C74" stroke="#747C74" stroke-width="0.0846746"/>
<path d="M468.265 107.944L468.266 91.1495C468.266 87.6656 471.09 84.8413 474.574 84.8413H487.073C490.557 84.8413 493.382 87.6656 493.382 91.1495V107.944H468.265ZM493.466 107.96L493.466 38.4671H518.583V101.652C518.583 105.136 515.758 107.96 512.274 107.96H493.466ZM468.181 38.4671V107.96H449.373C445.889 107.96 443.065 105.136 443.065 101.652V38.4671H468.181Z" fill="#747C74" stroke="#747C74" stroke-width="0.0846746"/>
<path d="M362.619 61.5697H362.594L362.582 61.5918L337.39 107.96H299.655V38.4671H324.775V100.765C324.775 102.235 326.821 102.594 327.321 101.212L337.455 73.2282L348.536 42.6275C349.44 40.1305 351.811 38.4671 354.467 38.4671H387.779V61.5697H362.619Z" fill="#747C74" stroke="#747C74" stroke-width="0.0846746"/>
<mask id="path-10-inside-2_360_39" fill="white">
<path fill-rule="evenodd" clip-rule="evenodd" d="M404.091 39.3096H426.752C427.454 39.3096 428.022 39.8782 428.022 40.5797V60.7137C428.022 60.7155 428.022 60.7174 428.022 60.7192V98.421L428.022 98.4265V106.733C428.022 107.434 427.454 108.003 426.752 108.003H404.091C403.39 108.003 402.821 107.434 402.821 106.733V95.128V86.0855V78.2816V74.4811V40.5797C402.821 39.8782 403.39 39.3096 404.091 39.3096Z"/>
</mask>
<path fill-rule="evenodd" clip-rule="evenodd" d="M404.091 39.3096H426.752C427.454 39.3096 428.022 39.8782 428.022 40.5797V60.7137C428.022 60.7155 428.022 60.7174 428.022 60.7192V98.421L428.022 98.4265V106.733C428.022 107.434 427.454 108.003 426.752 108.003H404.091C403.39 108.003 402.821 107.434 402.821 106.733V95.128V86.0855V78.2816V74.4811V40.5797C402.821 39.8782 403.39 39.3096 404.091 39.3096Z" fill="#747C74"/>
<path d="M428.022 60.7137H427.938L427.938 60.7141L428.022 60.7137ZM428.022 98.421L428.107 98.4212V98.421H428.022ZM428.022 98.4265L427.938 98.4263V98.4265H428.022ZM426.752 39.2249H404.091V39.3942H426.752V39.2249ZM428.107 40.5797C428.107 39.8315 427.5 39.2249 426.752 39.2249V39.3942C427.407 39.3942 427.938 39.925 427.938 40.5797H428.107ZM428.107 60.7137V40.5797H427.938V60.7137H428.107ZM427.938 60.7141C427.938 60.7158 427.938 60.7175 427.938 60.7192H428.107C428.107 60.7172 428.107 60.7153 428.107 60.7134L427.938 60.7141ZM427.938 60.7192V98.421H428.107V60.7192H427.938ZM427.938 98.4209L427.938 98.4263L428.107 98.4267L428.107 98.4212L427.938 98.4209ZM427.938 98.4265V106.733H428.107V98.4265H427.938ZM427.938 106.733C427.938 107.387 427.407 107.918 426.752 107.918V108.087C427.5 108.087 428.107 107.481 428.107 106.733H427.938ZM426.752 107.918H404.091V108.087H426.752V107.918ZM404.091 107.918C403.437 107.918 402.906 107.387 402.906 106.733H402.737C402.737 107.481 403.343 108.087 404.091 108.087V107.918ZM402.906 106.733V95.128H402.737V106.733H402.906ZM402.906 95.128V86.0855H402.737V95.128H402.906ZM402.906 86.0855V78.2816H402.737V86.0855H402.906ZM402.906 78.2816V74.4811H402.737V78.2816H402.906ZM402.737 40.5797V74.4811H402.906V40.5797H402.737ZM404.091 39.2249C403.343 39.2249 402.737 39.8315 402.737 40.5797H402.906C402.906 39.925 403.437 39.3942 404.091 39.3942V39.2249Z" fill="#747C74" mask="url(#path-10-inside-2_360_39)"/>
<path d="M409.172 1.16441H421.672C425.156 1.16441 427.98 3.98871 427.98 7.47266V17.9587C427.98 21.4426 425.156 24.2669 421.672 24.2669H409.172C405.688 24.2669 402.864 21.4426 402.864 17.9587V7.47267C402.864 3.98871 405.688 1.16441 409.172 1.16441Z" fill="#747C74" stroke="#747C74" stroke-width="0.0846746"/>
<path d="M616.436 61.5875L616.423 61.5697H616.401H599.929V38.4671H629.653C631.694 38.4671 633.608 39.4539 634.792 41.1158L682.4 107.96H649.463L616.436 61.5875Z" fill="#747C74" stroke="#747C74" stroke-width="0.0846746"/>
<path d="M630.271 107.961H600.497C600.023 107.961 599.591 107.688 599.388 107.259L569.121 43.4995C568.521 42.2351 566.623 42.6628 566.623 44.0623V106.733C566.623 107.411 566.073 107.961 565.395 107.961H534.895C534.217 107.961 533.667 107.411 533.667 106.733V39.6951C533.667 39.017 534.217 38.4673 534.895 38.4673H582.525C582.922 38.4673 583.295 38.6593 583.525 38.9828L631.271 106.021C631.85 106.833 631.269 107.961 630.271 107.961Z" fill="#747C74" stroke="#747C74" stroke-width="0.0846746"/>
</svg>
